<?xml version="1.0" standalone="no"?>
<!DOCTYPE svg PUBLIC "-//W3C//DTD SVG 20010904//EN"
 "http://www.w3.org/TR/2001/REC-SVG-20010904/DTD/svg10.dtd">
<svg version="1.0" xmlns="http://www.w3.org/2000/svg"
 width="1200.000000pt" height="672.000000pt" viewBox="0 0 1200.000000 672.000000"
 preserveAspectRatio="xMidYMid meet">

<g transform="translate(0.000000,672.000000) scale(0.100000,-0.100000)"
fill="#000000" stroke="none">
<path d="M0 3674 c0 -2011 4 -3043 10 -3039 6 4 10 -9 9 -32 -1 -33 -2 -35 -8
-13 -5 14 -9 -37 -10 -118 l-1 -142 25 0 c14 0 25 -4 25 -8 0 -15 -22 -30 -36
-25 -12 4 -14 -22 -14 -146 l0 -151 1800 0 c1593 0 1800 2 1800 15 0 8 5 15
10 15 6 0 13 -7 16 -15 5 -12 31 -15 149 -15 79 0 146 4 149 9 7 11 56 11 56
0 0 -13 74 -11 88 3 9 9 21 9 50 0 29 -9 270 -12 891 -12 750 0 851 2 851 15
0 8 7 15 15 15 8 0 15 -7 15 -15 0 -13 346 -15 3055 -15 l3055 0 0 3360 0
3360 -6000 0 -6000 0 0 -3046z m1176 2693 c4 -4 -7 -7 -25 -7 -19 0 -30 4 -26
10 6 10 40 8 51 -3z m466 -19 c-9 -9 -15 -9 -24 0 -9 9 -7 12 12 12 19 0 21
-3 12 -12z m168 -8 c0 -5 -12 -10 -27 -10 -22 0 -25 2 -13 10 20 13 40 13 40
0z m150 0 c0 -5 -4 -10 -10 -10 -5 0 -10 5 -10 10 0 6 5 10 10 10 6 0 10 -4
10 -10z m142 -12 c-9 -9 -15 -9 -24 0 -9 9 -7 12 12 12 19 0 21 -3 12 -12z
m159 -3 c-1 -15 -24 -12 -29 3 -3 9 2 13 12 10 10 -1 17 -7 17 -13z m152 -2
c-7 -2 -19 -2 -25 0 -7 3 -2 5 12 5 14 0 19 -2 13 -5z m317 -13 c0 -5 -4 -10
-10 -10 -5 0 -10 5 -10 10 0 6 5 10 10 10 6 0 10 -4 10 -10z m2600 -110 c0 -5
-8 -10 -17 -10 -15 0 -16 2 -3 10 19 12 20 12 20 0z m130 -10 c0 -5 -4 -10
-10 -10 -5 0 -10 5 -10 10 0 6 5 10 10 10 6 0 10 -4 10 -10z m229 -364 c0 -87
-3 -147 -9 -151 -6 -4 -10 19 -11 62 0 37 -2 105 -5 151 -4 66 -2 82 9 82 12
0 15 -27 16 -144z m-5316 -33 c-7 -2 -21 -2 -30 0 -10 3 -4 5 12 5 17 0 24 -2
18 -5z m170 0 c-13 -2 -33 -2 -45 0 -13 2 -3 4 22 4 25 0 35 -2 23 -4z m157
-3 c-20 -13 -50 -13 -50 0 0 6 15 10 33 10 24 0 28 -3 17 -10z m153 -7 c-7 -2
-19 -2 -25 0 -7 3 -2 5 12 5 14 0 19 -2 13 -5z m807 -29 c0 -9 -7 -14 -17 -12
-25 5 -28 28 -4 28 12 0 21 -6 21 -16z m320 -4 c0 -5 -12 -10 -26 -10 -14 0
-23 4 -19 10 3 6 15 10 26 10 10 0 19 -4 19 -10z m-173 -26 c-9 -9 -28 6 -21
18 4 6 10 6 17 -1 6 -6 8 -13 4 -17z m318 16 c-27 -12 -35 -12 -35 0 0 6 12
10 28 9 24 0 25 -1 7 -9z m165 -2 c0 -4 -9 -8 -20 -8 -11 0 -20 4 -20 9 0 6 9
9 20 8 11 -1 20 -5 20 -9z m160 2 c0 -5 -12 -10 -27 -10 -22 0 -25 2 -13 10
20 13 40 13 40 0z m127 -6 c-3 -3 -12 -4 -19 -1 -8 3 -5 6 6 6 11 1 17 -2 13
-5z m163 -4 c0 -5 -7 -10 -15 -10 -8 0 -15 5 -15 10 0 6 7 10 15 10 8 0 15 -4
15 -10z m152 -12 c-9 -9 -15 -9 -24 0 -9 9 -7 12 12 12 19 0 21 -3 12 -12z
m158 4 c0 -13 -12 -22 -22 -16 -10 6 -1 24 13 24 5 0 9 -4 9 -8z m140 -12 c0
-5 -2 -10 -4 -10 -3 0 -8 5 -11 10 -3 6 -1 10 4 10 6 0 11 -4 11 -10z m1870
-50 c0 -5 -7 -10 -15 -10 -8 0 -15 5 -15 10 0 6 7 10 15 10 8 0 15 -4 15 -10z
m140 -4 c0 -3 -4 -8 -10 -11 -5 -3 -10 -1 -10 4 0 6 5 11 10 11 6 0 10 -2 10
-4z m267 -12 c-3 -3 -12 -4 -19 -1 -8 3 -5 6 6 6 11 1 17 -2 13 -5z m403 -2
c0 -13 -12 -22 -22 -16 -10 6 -1 24 13 24 5 0 9 -4 9 -8z m-171 -264 c0 -59
-3 -109 -7 -112 -11 -6 -23 344 -14 359 9 13 19 -110 21 -247z m171 120 c0
-61 -2 -109 -4 -107 -8 8 -12 219 -4 219 4 0 8 -50 8 -112z m190 -6 c0 -15 -2
-15 -10 -2 -13 20 -13 33 0 25 6 -3 10 -14 10 -23z m1056 1 c0 -10 5 -17 12
-15 6 1 12 -7 12 -17 0 -27 -32 -17 -46 14 -12 25 -9 35 12 35 6 0 11 -8 10
-17z m-4471 -23 c-3 -5 -10 -10 -16 -10 -5 0 -9 5 -9 10 0 6 7 10 16 10 8 0
12 -4 9 -10z m4472 -98 c-5 -37 -27 -41 -27 -4 0 16 3 32 6 35 13 12 24 -5 21
-31z m-4472 -2 c-3 -5 -10 -10 -16 -10 -5 0 -9 5 -9 10 0 6 7 10 16 10 8 0 12
-4 9 -10z m4635 -20 c0 -5 -4 -10 -9 -10 -5 0 -16 -3 -25 -6 -11 -4 -16 -1
-16 10 0 10 9 16 25 16 14 0 25 -4 25 -10z m-1223 -97 c-2 -16 -4 -3 -4 27 0
30 2 43 4 28 2 -16 2 -40 0 -55z m1160 45 c-3 -7 -5 -2 -5 12 0 14 2 19 5 13
2 -7 2 -19 0 -25z m-4570 -24 c-3 -3 -12 -4 -19 -1 -8 3 -5 6 6 6 11 1 17 -2
13 -5z m4570 -16 c-3 -8 -6 -5 -6 6 -1 11 2 17 5 13 3 -3 4 -12 1 -19z m111
-69 l-3 -31 -25 21 c-22 19 -23 21 -5 19 16 -3 19 2 17 24 -2 15 0 33 5 40 10
15 16 -25 11 -73z m-1590 40 c2 -23 2 -23 -13 -5 -18 24 -20 39 -2 34 6 -3 13
-15 15 -29z m-69 -66 c0 -49 -4 -95 -9 -103 -7 -10 -10 15 -10 81 0 82 4 109
16 109 1 0 2 -39 3 -87z m216 47 c3 -5 1 -10 -4 -10 -6 0 -11 5 -11 10 0 6 2
10 4 10 3 0 8 -4 11 -10z m-4905 -10 c0 -5 -2 -10 -4 -10 -3 0 -8 5 -11 10 -3
6 -1 10 4 10 6 0 11 -4 11 -10z m860 -10 c0 -5 -2 -10 -4 -10 -3 0 -8 5 -11
10 -3 6 -1 10 4 10 6 0 11 -4 11 -10z m4005 0 c-3 -5 -11 -10 -16 -10 -6 0 -7
5 -4 10 3 6 11 10 16 10 6 0 7 -4 4 -10z m-5145 -26 c0 -2 -9 -4 -21 -4 -11 0
-18 4 -14 10 5 8 35 3 35 -6z m170 2 c-25 -14 -40 -13 -40 5 0 5 15 9 33 9
l32 -1 -25 -13z m349 -2 c8 -7 -48 -16 -59 -9 -19 12 1 25 28 19 15 -4 29 -8
31 -10z m147 6 c9 0 12 -4 9 -10 -7 -12 -65 -14 -65 -2 0 15 13 23 28 17 7 -3
20 -5 28 -5z m308 4 c26 -10 18 -24 -14 -24 -30 0 -41 14 -17 23 6 3 13 6 14
6 1 1 8 -2 17 -5z m4236 -4 c0 -5 -4 -10 -10 -10 -5 0 -10 5 -10 10 0 6 5 10
10 10 6 0 10 -4 10 -10z m-4380 -10 c0 -5 -13 -10 -30 -10 -16 0 -30 5 -30 10
0 6 14 10 30 10 17 0 30 -4 30 -10z m457 4 c31 -8 19 -24 -18 -24 -28 0 -37 9
-22 23 8 8 12 8 40 1z m158 -4 c11 -5 18 -9 15 -10 -41 -12 -75 -7 -65 10 7
12 22 12 50 0z m486 -5 c-18 -8 -40 -15 -49 -15 -23 0 -2 17 28 23 48 8 55 6
21 -8z m-316 -5 c-3 -5 -19 -10 -36 -10 -16 0 -29 5 -29 10 0 6 16 10 36 10
21 0 33 -4 29 -10z m145 0 c0 -5 -11 -10 -25 -10 -14 0 -25 5 -25 10 0 6 11
10 25 10 14 0 25 -4 25 -10z m4870 -16 c0 -8 -7 -14 -15 -14 -8 0 -15 9 -15
20 0 13 5 18 15 14 8 -4 15 -12 15 -20z m-4567 9 c-7 -2 -21 -2 -30 0 -10 3
-4 5 12 5 17 0 24 -2 18 -5z m144 1 c-3 -3 -12 -4 -19 -1 -8 3 -5 6 6 6 11 1
17 -2 13 -5z m146 -1 c-7 -2 -19 -2 -25 0 -7 3 -2 5 12 5 14 0 19 -2 13 -5z
m157 -3 c0 -5 -7 -10 -15 -10 -8 0 -15 5 -15 10 0 6 7 10 15 10 8 0 15 -4 15
-10z m2625 0 c3 -5 1 -10 -4 -10 -6 0 -11 5 -11 10 0 6 2 10 4 10 3 0 8 -4 11
-10z m219 -15 c-6 -16 -24 -21 -24 -7 0 11 11 22 21 22 5 0 6 -7 3 -15z m-307
-27 c-3 -8 -6 -5 -6 6 -1 11 2 17 5 13 3 -3 4 -12 1 -19z m-947 2 c0 -5 -4
-10 -10 -10 -5 0 -10 5 -10 10 0 6 5 10 10 10 6 0 10 -4 10 -10z m280 0 c0 -5
-5 -10 -11 -10 -5 0 -7 5 -4 10 3 6 8 10 11 10 2 0 4 -4 4 -10z m1023 -166 l2
-169 -42 0 c-24 0 -43 2 -43 5 0 10 52 29 66 23 14 -5 20 8 9 19 -3 3 -6 48
-7 99 -1 140 1 203 7 197 3 -3 7 -81 8 -174z m-883 156 c0 -5 -4 -10 -9 -10
-6 0 -13 5 -16 10 -3 6 1 10 9 10 9 0 16 -4 16 -10z m140 6 c0 -2 -7 -6 -15
-10 -8 -3 -15 -1 -15 4 0 6 7 10 15 10 8 0 15 -2 15 -4z m140 -6 c0 -5 -6 -10
-14 -10 -8 0 -18 5 -21 10 -3 6 3 10 14 10 12 0 21 -4 21 -10z m-2850 -10 c0
-5 -4 -10 -10 -10 -5 0 -10 5 -10 10 0 6 5 10 10 10 6 0 10 -4 10 -10z m3097
-62 c-2 -13 -4 -3 -4 22 0 25 2 35 4 23 2 -13 2 -33 0 -45z m-80 0 c-3 -8 -6
-5 -6 6 -1 11 2 17 5 13 3 -3 4 -12 1 -19z m-4682 -8 c-3 -5 -10 -10 -16 -10
-5 0 -9 5 -9 10 0 6 7 10 16 10 8 0 12 -4 9 -10z m855 -20 c12 -8 11 -10 -7
-10 -13 0 -23 5 -23 10 0 13 11 13 30 0z m3827 -12 c-3 -8 -6 -5 -6 6 -1 11 2
17 5 13 3 -3 4 -12 1 -19z m-3007 -8 c0 -5 -7 -7 -15 -4 -8 4 -15 8 -15 10 0
2 7 4 15 4 8 0 15 -4 15 -10z m3007 -177 c-2 -32 -3 -6 -3 57 0 63 1 89 3 58
2 -32 2 -84 0 -115z m-3009 86 c-2 -6 -8 -10 -13 -10 -5 0 -11 4 -13 10 -2 6
4 11 13 11 9 0 15 -5 13 -11z m797 -9 c3 -5 1 -10 -4 -10 -6 0 -11 5 -11 10 0
6 2 10 4 10 3 0 8 -4 11 -10z m3162 -66 c-3 -3 -12 -4 -19 -1 -8 3 -5 6 6 6
11 1 17 -2 13 -5z m-5624 -11 c-7 -2 -19 -2 -25 0 -7 3 -2 5 12 5 14 0 19 -2
13 -5z m857 3 c0 -2 -7 -6 -15 -10 -8 -3 -15 -1 -15 4 0 6 7 10 15 10 8 0 15
-2 15 -4z m815 -17 c10 -15 -1 -23 -20 -15 -9 3 -13 10 -10 16 8 13 22 13 30
-1z m795 -9 c0 -5 -4 -10 -10 -10 -5 0 -10 5 -10 10 0 6 5 10 10 10 6 0 10 -4
10 -10z m2830 -10 c0 -5 -7 -7 -15 -4 -8 4 -15 8 -15 10 0 2 7 4 15 4 8 0 15
-4 15 -10z m-1300 -10 c0 -5 -4 -10 -10 -10 -5 0 -10 5 -10 10 0 6 5 10 10 10
6 0 10 -4 10 -10z m677 -92 c-2 -13 -4 -3 -4 22 0 25 2 35 4 23 2 -13 2 -33 0
-45z m100 40 c-3 -8 -6 -5 -6 6 -1 11 2 17 5 13 3 -3 4 -12 1 -19z m-4787 -8
c0 -5 -4 -10 -10 -10 -5 0 -10 5 -10 10 0 6 5 10 10 10 6 0 10 -4 10 -10z
m870 -11 c0 -5 -10 -9 -21 -9 -18 0 -19 2 -9 15 12 15 30 12 30 -6z m818 -7
c2 -7 -3 -12 -12 -12 -9 0 -16 7 -16 16 0 17 22 14 28 -4z m802 -2 c0 -5 -4
-10 -10 -10 -5 0 -10 5 -10 10 0 6 5 10 10 10 6 0 10 -4 10 -10z m2828 -38 c2
-15 -2 -22 -12 -22 -11 0 -16 9 -16 26 0 31 23 28 28 -4z m1172 8 c-20 -13
-30 -12 -30 1 0 5 4 8 9 4 5 -3 13 0 16 6 4 5 10 8 13 4 4 -3 0 -10 -8 -15z
m-1703 -52 c-2 -13 -4 -5 -4 17 -1 22 1 32 4 23 2 -10 2 -28 0 -40z m1710 20
c-3 -8 -6 -5 -6 6 -1 11 2 17 5 13 3 -3 4 -12 1 -19z m-7362 -28 c-28 -12 -88
-12 -80 0 3 6 27 10 53 9 35 0 42 -3 27 -9z m912 0 c23 0 33 -4 30 -12 -7 -20
-97 -7 -97 13 0 6 7 8 16 5 9 -3 31 -6 51 -6z m830 -24 c-8 -20 -18 -20 -43
-2 -18 14 -18 15 6 24 28 11 46 1 37 -22z m4443 8 c0 -14 -4 -23 -10 -19 -5 3
-10 1 -10 -6 0 -7 -2 -10 -5 -7 -6 6 12 58 20 58 3 0 5 -12 5 -26z m-6050 -2
c0 -9 -6 -12 -16 -8 -9 3 -22 6 -30 6 -8 0 -14 5 -14 10 0 6 14 9 30 8 18 -1
30 -8 30 -16z m163 3 c3 -14 -56 -12 -60 2 -3 9 5 12 26 10 17 -1 32 -6 34
-12z m165 -2 c2 -9 -7 -13 -27 -13 -30 0 -46 11 -34 24 11 11 56 2 61 -11z
m172 1 c0 -8 -13 -12 -32 -12 -37 1 -50 6 -44 17 8 12 76 8 76 -5z m153 1 c1
-5 -13 -11 -30 -13 -34 -3 -46 13 -15 21 24 7 43 4 45 -8z m320 0 c1 -6 -13
-11 -30 -13 -25 -2 -33 1 -33 12 0 11 9 15 30 13 17 -1 31 -7 33 -12z m164 -2
c2 -6 -3 -13 -11 -16 -21 -8 -56 3 -56 18 0 15 62 13 67 -2z m163 2 c0 -20
-18 -28 -46 -21 -37 10 -30 32 11 33 23 1 35 -4 35 -12z m150 0 c0 -10 -10
-15 -30 -15 -29 0 -38 9 -23 23 13 13 53 7 53 -8z m318 -3 c1 -5 -1 -13 -7
-16 -12 -8 -61 11 -61 24 0 13 63 6 68 -8z m127 8 c4 -6 11 -8 16 -5 5 4 9 1
9 -4 0 -6 -13 -11 -30 -11 -20 0 -30 5 -30 15 0 17 25 20 35 5z m525 -5 c0
-15 -80 -26 -95 -13 -15 13 7 23 54 25 28 1 41 -3 41 -12z m2690 1 c0 -8 -4
-18 -10 -21 -5 -3 -10 3 -10 14 0 12 5 21 10 21 6 0 10 -6 10 -14z m176 -21
c-3 -8 -10 -15 -16 -15 -13 0 -9 32 5 42 12 9 19 -7 11 -27z m-3206 10 c0 -16
-55 -22 -64 -6 -8 13 5 21 36 21 18 0 28 -5 28 -15z m155 5 c3 -5 -3 -11 -14
-11 -12 -1 -26 -2 -33 -3 -6 -1 -13 5 -15 12 -6 15 53 17 62 2z m295 -5 c0
-16 -9 -19 -34 -9 -20 8 -11 24 15 24 10 0 19 -7 19 -15z m150 0 c0 -8 -9 -15
-20 -15 -20 0 -26 11 -13 23 12 13 33 7 33 -8z m160 -2 c0 -7 -11 -11 -27 -9
-36 5 -35 4 -28 16 8 14 55 8 55 -7z m439 1 c10 -9 -6 -11 -36 -7 -18 3 -33 9
-33 14 0 8 59 1 69 -7z m-299 -4 c0 -5 -9 -10 -19 -10 -11 0 -23 5 -26 10 -4
6 5 10 19 10 14 0 26 -4 26 -10z m150 0 c0 -5 -6 -10 -14 -10 -8 0 -18 5 -21
10 -3 6 3 10 14 10 12 0 21 -4 21 -10z m1615 0 c-3 -5 -18 -10 -33 -10 -21 0
-24 2 -12 10 20 13 53 13 45 0z m2475 0 c13 -8 13 -11 -1 -25 -15 -15 -17 -15
-21 9 -6 28 -1 31 22 16z m-3807 -7 c-7 -2 -19 -2 -25 0 -7 3 -2 5 12 5 14 0
19 -2 13 -5z m1574 1 c-3 -3 -12 -4 -19 -1 -8 3 -5 6 6 6 11 1 17 -2 13 -5z
m423 -4 c0 -5 -10 -10 -22 -9 -22 0 -22 1 -3 9 11 5 21 9 23 9 1 1 2 -3 2 -9z
m400 -10 c0 -5 -9 -10 -21 -10 -11 0 -17 5 -14 10 3 6 13 10 21 10 8 0 14 -4
14 -10z m-4200 -49 c0 -14 -18 -23 -30 -16 -6 4 -8 11 -5 16 8 12 35 12 35 0z
m820 -6 c0 -8 -4 -15 -9 -15 -13 0 -22 16 -14 24 11 11 23 6 23 -9z m2640 6
c0 -6 -4 -13 -10 -16 -5 -3 -10 1 -10 9 0 9 5 16 10 16 6 0 10 -4 10 -9z m102
-324 c2 -53 0 -97 -3 -97 -7 0 -20 245 -18 354 2 76 2 73 10 -39 4 -66 9 -164
11 -218z m146 321 c14 -14 17 -148 4 -148 -5 0 -8 28 -7 63 2 44 -2 67 -13 80
-17 19 -3 24 16 5z m-2098 -8 c0 -5 -4 -10 -10 -10 -5 0 -10 5 -10 10 0 6 5
10 10 10 6 0 10 -4 10 -10z m2044 -107 c3 -24 2 -43 -3 -43 -9 0 -20 77 -12
86 6 6 8 3 15 -43z m-4519 17 c-3 -5 -10 -10 -16 -10 -5 0 -9 5 -9 10 0 6 7
10 16 10 8 0 12 -4 9 -10z m1690 -1 c10 -15 -1 -23 -20 -15 -9 3 -13 10 -10
16 8 13 22 13 30 -1z m-825 -9 c0 -5 -9 -10 -20 -10 -11 0 -20 5 -20 10 0 6 9
10 20 10 11 0 20 -4 20 -10z m1620 6 c0 -11 -19 -15 -25 -6 -3 5 1 10 9 10 9
0 16 -2 16 -4z m1530 -6 c13 -8 13 -10 -2 -10 -9 0 -20 5 -23 10 -8 13 5 13
25 0z m757 -47 c-3 -10 -5 -2 -5 17 0 19 2 27 5 18 2 -10 2 -26 0 -35z m508
16 c0 -8 -12 -15 -27 -17 -32 -4 -36 5 -10 24 20 16 37 13 37 -7z m35 0 c0
-11 -4 -18 -10 -14 -5 3 -7 12 -3 20 7 21 13 19 13 -6z m-4450 -64 c0 -8 -9
-15 -20 -15 -20 0 -26 11 -13 23 12 13 33 7 33 -8z m828 -3 c2 -7 -6 -12 -17
-12 -21 0 -27 11 -14 24 9 9 26 2 31 -12z m-1678 -2 c0 -5 -9 -10 -20 -10 -11
0 -20 5 -20 10 0 6 9 10 20 10 11 0 20 -4 20 -10z m2470 0 c0 -5 -4 -10 -10
-10 -5 0 -10 5 -10 10 0 6 5 10 10 10 6 0 10 -4 10 -10z m1540 0 c0 -5 -9 -10
-20 -10 -11 0 -20 5 -20 10 0 6 9 10 20 10 11 0 20 -4 20 -10z m-1540 -90 c0
-5 -4 -10 -10 -10 -5 0 -10 5 -10 10 0 6 5 10 10 10 6 0 10 -4 10 -10z m-2483
-6 c-3 -3 -12 -4 -19 -1 -8 3 -5 6 6 6 11 1 17 -2 13 -5z m863 -4 c0 -5 -9
-10 -20 -10 -11 0 -20 5 -20 10 0 6 9 10 20 10 11 0 20 -4 20 -10z m828 -2
c-3 -7 -11 -13 -18 -13 -7 0 -15 6 -17 13 -3 7 4 12 17 12 13 0 20 -5 18 -12z
m2332 2 c0 -5 -4 -10 -9 -10 -6 0 -13 5 -16 10 -3 6 1 10 9 10 9 0 16 -4 16
-10z m316 -270 c4 -146 3 -262 -1 -258 -4 4 -9 80 -11 170 -2 90 -6 210 -9
268 -4 72 -3 102 4 95 7 -7 13 -115 17 -275z m-3471 181 c3 -5 1 -13 -5 -16
-15 -9 -43 3 -35 15 8 13 32 13 40 1z m828 -6 c1 -5 -6 -11 -15 -13 -11 -2
-18 3 -18 13 0 17 30 18 33 0z m-1688 -5 c-3 -5 -12 -7 -20 -3 -21 7 -19 13 6
13 11 0 18 -4 14 -10z m2485 0 c0 -5 -7 -10 -15 -10 -8 0 -15 5 -15 10 0 6 7
10 15 10 8 0 15 -4 15 -10z m1535 0 c-3 -5 -10 -10 -16 -10 -5 0 -9 5 -9 10 0
6 7 10 16 10 8 0 12 -4 9 -10z m522 -22 c-3 -8 -6 -5 -6 6 -1 11 2 17 5 13 3
-3 4 -12 1 -19z m913 -51 c0 -31 -3 -38 -10 -27 -13 20 -13 83 0 75 6 -3 10
-25 10 -48z m-1026 -124 c5 -114 4 -163 -3 -163 -7 0 -11 54 -11 167 0 91 2
164 4 162 2 -2 7 -77 10 -166z m90 131 c22 -9 20 -24 -3 -24 -21 0 -34 13 -24
24 8 7 8 7 27 0z m256 -4 c0 -5 -9 -14 -20 -20 -15 -8 -20 -8 -20 3 0 8 3 17
7 20 10 10 33 8 33 -3z m155 0 c3 -6 -4 -10 -17 -10 -18 0 -20 2 -8 10 19 12
18 12 25 0z m140 0 c3 -5 -3 -10 -15 -10 -12 0 -18 5 -15 10 3 6 10 10 15 10
5 0 12 -4 15 -10z m1785 -16 c0 -14 -4 -23 -10 -19 -5 3 -10 0 -10 -7 -1 -8
-4 -7 -10 4 -12 20 -3 48 16 48 8 0 14 -10 14 -26z m-6463 6 c9 0 13 -3 9 -7
-10 -10 -66 -13 -66 -3 0 13 14 21 28 15 7 -3 21 -5 29 -5z m307 4 c27 -10 18
-25 -11 -18 -37 9 -53 24 -26 24 12 0 28 -3 37 -6z m1246 -4 c0 -5 -12 -10
-26 -10 -14 0 -23 4 -19 10 3 6 15 10 26 10 10 0 19 -4 19 -10z m150 1 c0 -11
-26 -22 -34 -14 -12 12 -5 23 14 23 11 0 20 -4 20 -9z m595 -1 c-3 -5 -13 -10
-21 -10 -8 0 -14 5 -14 10 0 6 9 10 21 10 11 0 17 -4 14 -10z m145 0 c0 -5 -4
-10 -9 -10 -6 0 -13 5 -16 10 -3 6 1 10 9 10 9 0 16 -4 16 -10z m135 0 c3 -5
-1 -10 -10 -10 -9 0 -13 5 -10 10 3 6 8 10 10 10 2 0 7 -4 10 -10z m865 0 c0
-5 -6 -10 -14 -10 -8 0 -18 5 -21 10 -3 6 3 10 14 10 12 0 21 -4 21 -10z m159
4 c17 -4 28 -10 25 -15 -3 -5 -13 -5 -24 1 -10 5 -25 7 -33 4 -8 -3 -18 -1
-22 5 -7 12 9 14 54 5z m116 -4 c-3 -5 -10 -10 -16 -10 -5 0 -9 5 -9 10 0 6 7
10 16 10 8 0 12 -4 9 -10z m-4386 -14 c8 -10 9 -16 1 -21 -13 -8 -30 3 -30 21
0 18 14 18 29 0z m346 5 c-14 -12 -84 -21 -90 -11 -7 12 13 18 60 19 22 1 35
-3 30 -8z m163 2 c-10 -2 -26 -2 -35 0 -10 3 -2 5 17 5 19 0 27 -2 18 -5z
m332 -3 c0 -5 -15 -10 -34 -10 -19 0 -38 5 -41 10 -4 6 10 10 34 10 23 0 41
-4 41 -10z m304 1 c3 -5 0 -13 -7 -19 -15 -12 -61 3 -52 18 8 12 52 13 59 1z
m151 -1 c-3 -5 -17 -10 -31 -10 -13 0 -24 5 -24 10 0 6 14 10 31 10 17 0 28
-4 24 -10z m160 0 c-3 -5 -17 -10 -31 -10 -13 0 -24 5 -24 10 0 6 14 10 31 10
17 0 28 -4 24 -10z m155 0 c0 -5 -11 -10 -25 -10 -14 0 -25 5 -25 10 0 6 11
10 25 10 14 0 25 -4 25 -10z m160 0 c0 -5 -9 -10 -19 -10 -11 0 -23 5 -26 10
-4 6 5 10 19 10 14 0 26 -4 26 -10z m180 0 c8 -5 12 -11 10 -14 -9 -8 -100 6
-94 15 7 12 65 11 84 -1z m120 0 c0 -5 -14 -10 -31 -10 -17 0 -28 4 -24 10 3
6 17 10 31 10 13 0 24 -4 24 -10z m448 3 c-10 -2 -26 -2 -35 0 -10 3 -2 5 17
5 19 0 27 -2 18 -5z m142 3 c0 -11 -19 -15 -25 -6 -3 5 1 10 9 10 9 0 16 -2
16 -4z m115 -11 c-42 -13 -51 -12 -42 2 3 5 23 9 44 9 l38 1 -40 -12z m-3435
-6 c0 -6 8 -8 18 -5 9 3 24 1 32 -4 11 -7 8 -10 -16 -10 -17 0 -37 7 -44 15
-9 10 -9 15 -1 15 6 0 11 -5 11 -11z m833 4 c-7 -2 -21 -2 -30 0 -10 3 -4 5
12 5 17 0 24 -2 18 -5z m4117 -83 c0 -5 -4 -10 -10 -10 -5 0 -10 5 -10 10 0 6
5 10 10 10 6 0 10 -4 10 -10z m-3160 -20 c0 -11 -7 -20 -15 -20 -18 0 -19 12
-3 28 16 16 18 15 18 -8z m838 2 c4 -14 -34 -16 -42 -3 -6 10 13 21 28 17 6
-1 12 -8 14 -14z m792 -3 c0 -5 -7 -9 -15 -9 -15 0 -20 12 -9 23 8 8 24 -1 24
-14z m-2473 -5 c-3 -3 -12 -4 -19 -1 -8 3 -5 6 6 6 11 1 17 -2 13 -5z m6771
-73 c-17 -6 -28 14 -21 38 6 23 6 23 18 -5 7 -17 8 -31 3 -33z m-2758 -1 c0
-5 -4 -10 -10 -10 -5 0 -10 5 -10 10 0 6 5 10 10 10 6 0 10 -4 10 -10z m-2336
-30 c-6 -6 -15 -6 -24 0 -13 9 -13 11 0 20 18 11 39 -5 24 -20z m-834 0 c0
-11 -4 -20 -10 -20 -5 0 -10 9 -10 20 0 11 5 20 10 20 6 0 10 -9 10 -20z
m1640 16 c0 -11 -19 -15 -25 -6 -3 5 1 10 9 10 9 0 16 -2 16 -4z m-2480 -15
c0 -12 -28 -22 -34 -12 -3 5 -3 11 1 15 9 9 33 7 33 -3z m2473 -86 c4 -8 2
-17 -3 -20 -6 -4 -10 3 -10 14 0 25 6 27 13 6z m-803 -10 c0 -8 -4 -15 -10
-15 -5 0 -10 7 -10 15 0 8 5 15 10 15 6 0 10 -7 10 -15z m-830 -5 c0 -5 -4
-10 -10 -10 -5 0 -10 5 -10 10 0 6 5 10 10 10 6 0 10 -4 10 -10z m3584 1 c8
-13 -4 -42 -15 -35 -12 7 -12 44 0 44 6 0 12 -4 15 -9z m1151 -1 c4 -6 -5 -10
-19 -10 -14 0 -26 -4 -26 -10 0 -13 -47 -13 -55 0 -3 5 7 12 22 16 15 3 33 7
38 9 20 7 34 5 40 -5z m60 0 c4 -6 -5 -10 -19 -10 -14 0 -26 5 -26 10 0 6 9
10 19 10 11 0 23 -4 26 -10z m-1066 -4 c-12 -10 -59 -15 -59 -6 0 5 14 10 32
10 17 0 29 -2 27 -4z m138 -2 c-3 -3 -12 -4 -19 -1 -8 3 -5 6 6 6 11 1 17 -2
13 -5z m226 -1 c-7 -2 -19 -2 -25 0 -7 3 -2 5 12 5 14 0 19 -2 13 -5z m175 0
c-15 -2 -42 -2 -60 0 -18 2 -6 4 27 4 33 0 48 -2 33 -4z m129 1 c-3 -3 -12 -4
-19 -1 -8 3 -5 6 6 6 11 1 17 -2 13 -5z m-3577 -23 c0 -12 -154 -20 -517 -27
-210 -3 -303 -2 -303 5 0 7 48 11 138 12 166 2 676 15 680 17 1 1 2 -2 2 -7z
m400 -10 c-113 -3 -243 -3 -290 0 -47 3 46 6 205 5 281 0 284 0 85 -5z m-2052
-22 c-18 -12 -48 -11 -48 0 0 11 30 19 48 13 11 -4 11 -6 0 -13z m757 11 c-3
-5 -12 -7 -20 -3 -21 7 -19 13 6 13 11 0 18 -4 14 -10z m-831 -10 c-14 -14
-527 -25 -550 -12 -12 7 -25 7 -36 1 -17 -9 -25 1 -11 14 3 4 141 7 307 7 193
0 297 -3 290 -10z m241 -18 c-8 -8 -25 10 -19 20 4 6 9 5 15 -3 4 -7 6 -15 4
-17z m4142 6 c-3 -8 -6 -5 -6 6 -1 11 2 17 5 13 3 -3 4 -12 1 -19z m-1837 -3
c0 -8 -4 -15 -9 -15 -13 0 -22 16 -14 24 11 11 23 6 23 -9z m1525 5 c3 -5 1
-10 -4 -10 -6 0 -11 5 -11 10 0 6 2 10 4 10 3 0 8 -4 11 -10z m-2126 -118 c1
-46 -3 -71 -9 -67 -6 3 -10 45 -9 93 1 107 17 83 18 -26z m2538 51 c-3 -10 -5
-2 -5 17 0 19 2 27 5 18 2 -10 2 -26 0 -35z m-3567 27 c0 -5 -4 -10 -10 -10
-5 0 -10 5 -10 10 0 6 5 10 10 10 6 0 10 -4 10 -10z m3483 -97 c2 -45 0 -80
-5 -77 -4 3 -7 47 -7 97 1 106 6 98 12 -20z m-143 57 c0 -11 -2 -20 -4 -20 -2
0 -6 9 -9 20 -3 11 -1 20 4 20 5 0 9 -9 9 -20z m1021 4 c-18 -8 -38 -13 -45
-11 -6 3 5 9 24 15 50 15 60 13 21 -4z m-1206 -14 c3 -5 1 -10 -4 -10 -6 0
-11 5 -11 10 0 6 2 10 4 10 3 0 8 -4 11 -10z m-1525 -31 c0 -10 -4 -19 -10
-19 -5 0 -10 12 -10 26 0 14 4 23 10 19 6 -3 10 -15 10 -26z m2649 16 c-41
-22 -119 -47 -132 -42 -15 6 55 37 103 47 53 11 57 11 29 -5z m-3859 -15 c0
-11 -7 -20 -15 -20 -15 0 -21 21 -8 33 12 13 23 7 23 -13z m-400 -20 c0 -5
-12 -10 -26 -10 -14 0 -23 4 -19 10 3 6 15 10 26 10 10 0 19 -4 19 -10z m4065
0 c-3 -5 -10 -10 -16 -10 -5 0 -9 5 -9 10 0 6 7 10 16 10 8 0 12 -4 9 -10z
m525 -5 c0 -8 -4 -15 -9 -15 -13 0 -22 16 -14 24 11 11 23 6 23 -9z m-1350 -5
c0 -5 -7 -10 -16 -10 -8 0 -12 5 -9 10 3 6 10 10 16 10 5 0 9 -4 9 -10z
m-2830 -26 c0 -8 -4 -12 -10 -9 -5 3 -10 10 -10 16 0 5 5 9 10 9 6 0 10 -7 10
-16z m1697 10 c-3 -3 -12 -4 -19 -1 -8 3 -5 6 6 6 11 1 17 -2 13 -5z m1023 -4
c0 -5 -4 -10 -10 -10 -5 0 -10 5 -10 10 0 6 5 10 10 10 6 0 10 -4 10 -10z
m-1623 -6 c-3 -3 -12 -4 -19 -1 -8 3 -5 6 6 6 11 1 17 -2 13 -5z m300 0 c-3
-3 -12 -4 -19 -1 -8 3 -5 6 6 6 11 1 17 -2 13 -5z m-2127 -24 c11 -7 7 -10
-17 -10 -18 0 -33 5 -33 10 0 13 30 13 50 0z m165 0 c4 -6 -7 -10 -25 -10 -18
0 -29 4 -25 10 3 6 15 10 25 10 10 0 22 -4 25 -10z m319 4 c9 -3 16 -12 16
-20 0 -8 5 -14 10 -14 11 0 7 -122 -7 -180 -6 -27 -9 -9 -13 80 l-5 115 -33 3
c-18 2 -30 8 -27 13 7 10 36 12 59 3z m146 -4 c0 -12 -8 -12 -35 0 -18 8 -17
9 8 9 15 1 27 -3 27 -9z m3255 0 c-3 -5 -13 -10 -21 -10 -8 0 -12 5 -9 10 3 6
13 10 21 10 8 0 12 -4 9 -10z m-3565 -26 c0 -8 -9 -14 -20 -14 -22 0 -26 10
-8 28 13 13 28 7 28 -14z m3369 -48 c1 -55 -5 -42 -12 24 -3 34 -2 47 3 35 5
-11 9 -38 9 -59z m-4813 54 c8 0 14 -4 14 -10 0 -5 -16 -10 -35 -10 -33 0 -43
8 -28 24 4 3 13 4 21 1 7 -3 20 -5 28 -5z m142 4 c32 -9 27 -24 -8 -24 -20 0
-30 5 -30 15 0 17 4 18 38 9z m187 -9 c0 -5 -15 -11 -32 -13 -25 -3 -33 1 -33
13 0 12 8 16 33 13 17 -2 32 -7 32 -13z m135 0 c-32 -18 -40 -18 -40 0 0 10
10 15 33 15 l32 -1 -25 -14z m1987 -17 c-3 -7 -5 -2 -5 12 0 14 2 19 5 13 2
-7 2 -19 0 -25z m-2617 12 c0 -13 -20 -13 -40 0 -12 8 -9 10 13 10 15 0 27 -4
27 -10z m-162 -15 c3 -3 -7 -5 -21 -5 -15 0 -27 4 -27 9 0 10 38 7 48 -4z
m2226 -170 c4 -79 3 -116 -4 -109 -5 5 -12 75 -14 154 -6 172 8 136 18 -45z
m761 175 c3 -5 15 -10 26 -10 12 0 19 -7 19 -20 0 -23 -44 -45 -69 -34 -13 5
-12 8 7 17 27 13 29 37 2 37 -11 0 -20 5 -20 10 0 6 6 10 14 10 8 0 18 -4 21
-10z m582 -37 c-3 -10 -5 -2 -5 17 0 19 2 27 5 18 2 -10 2 -26 0 -35z m2114
23 c-12 -14 -91 -57 -91 -50 0 2 19 17 42 34 43 32 69 40 49 16z m-3261 -18
c0 -18 -51 -41 -64 -28 -6 6 1 12 22 16 18 4 32 10 32 15 0 5 2 9 5 9 3 0 5
-6 5 -12z m2500 -8 c0 -5 -7 -10 -15 -10 -8 0 -15 5 -15 10 0 6 7 10 15 10 8
0 15 -4 15 -10z m-3762 -10 c15 0 22 -6 22 -20 0 -18 -7 -20 -60 -20 -53 0
-60 2 -60 19 0 21 23 31 55 25 11 -2 30 -4 43 -4z m223 -42 c0 -18 1 -90 1
-160 0 -169 -11 -198 -47 -129 -14 27 -13 28 11 23 17 -3 24 0 24 12 0 9 -3
15 -7 15 -20 -3 -31 2 -38 19 -5 13 -3 14 6 5 9 -9 15 -9 25 2 16 15 19 45 5
45 -5 0 -13 9 -16 20 -8 26 4 82 16 74 5 -3 9 10 9 28 0 33 -32 68 -44 49 -3
-5 -20 -7 -38 -6 -43 4 -42 3 -28 20 8 10 31 15 66 15 l54 0 1 -32z m1839 13
c0 -23 -36 -35 -44 -14 -8 20 1 33 25 33 12 0 19 -7 19 -19z m2355 -1 c-3 -5
-12 -10 -18 -10 -7 0 -6 4 3 10 19 12 23 12 15 0z m-4035 -70 c0 -33 -4 -60
-10 -60 -6 0 -10 27 -10 60 0 33 4 60 10 60 6 0 10 -27 10 -60z m230 50 c0 -5
-4 -10 -9 -10 -6 0 -13 5 -16 10 -3 6 1 10 9 10 9 0 16 -4 16 -10z m3288 -90
c0 -55 0 -55 -9 -15 -4 22 -8 58 -7 80 0 34 1 37 8 15 4 -14 8 -50 8 -80z m79
58 c-3 -7 -5 -2 -5 12 0 14 2 19 5 13 2 -7 2 -19 0 -25z m518 12 c3 -5 -1 -10
-10 -10 -9 0 -13 5 -10 10 3 6 8 10 10 10 2 0 7 -4 10 -10z m-3548 -82 c-2
-18 -4 -6 -4 27 0 33 2 48 4 33 2 -15 2 -42 0 -60z m695 -241 c-3 -5 -8 -5
-12 0 -10 11 -22 298 -12 307 7 8 31 -292 24 -307z m185 291 c-3 -8 -6 -5 -6
6 -1 11 2 17 5 13 3 -3 4 -12 1 -19z m1933 12 c0 -5 -4 -10 -10 -10 -5 0 -10
5 -10 10 0 6 5 10 10 10 6 0 10 -4 10 -10z m-2343 -42 c-3 -7 -5 -2 -5 12 0
14 2 19 5 13 2 -7 2 -19 0 -25z m658 22 c3 -5 1 -10 -4 -10 -6 0 -11 5 -11 10
0 6 2 10 4 10 3 0 8 -4 11 -10z m4592 -12 c-3 -8 -6 -5 -6 6 -1 11 2 17 5 13
3 -3 4 -12 1 -19z m-4399 -153 l3 -154 -26 -7 c-33 -8 -36 -5 -42 48 -5 45 -2
45 35 -9 11 -15 12 -8 6 47 -12 129 -9 230 9 230 9 0 13 -39 15 -155z m147
125 c3 -5 1 -10 -4 -10 -6 0 -11 5 -11 10 0 6 2 10 4 10 3 0 8 -4 11 -10z
m4252 -42 c-2 -13 -4 -5 -4 17 -1 22 1 32 4 23 2 -10 2 -28 0 -40z m-2167 22
c0 -5 -7 -10 -15 -10 -8 0 -15 5 -15 10 0 6 7 10 15 10 8 0 15 -4 15 -10z
m-3070 -10 c0 -5 -4 -10 -10 -10 -5 0 -10 5 -10 10 0 6 5 10 10 10 6 0 10 -4
10 -10z m2565 -30 c-3 -5 -11 -10 -16 -10 -6 0 -7 5 -4 10 3 6 11 10 16 10 6
0 7 -4 4 -10z m3355 -5 c0 -9 -6 -12 -15 -9 -8 4 -15 10 -15 15 0 5 7 9 15 9
8 0 15 -7 15 -15z m-5920 -15 c0 -11 -4 -20 -10 -20 -5 0 -10 9 -10 20 0 11 5
20 10 20 6 0 10 -9 10 -20z m987 -12 c-3 -8 -6 -5 -6 6 -1 11 2 17 5 13 3 -3
4 -12 1 -19z m1258 13 c5 -9 -184 -3 -194 5 -2 2 39 4 92 4 53 0 98 -4 102 -9z
m3885 -1 c0 -5 -4 -10 -10 -10 -5 0 -10 5 -10 10 0 6 5 10 10 10 6 0 10 -4 10
-10z m-6553 -12 c34 3 41 -6 22 -25 -9 -9 -20 -7 -45 5 -19 8 -34 20 -34 24 0
5 5 6 12 2 7 -4 27 -7 45 -6z m2217 -9 c-7 -11 -41 -12 -48 0 -9 13 2 19 29
13 14 -2 22 -8 19 -13z m3532 4 c-2 -26 -22 -35 -46 -21 -22 14 -28 33 -7 25
8 -3 20 -1 28 4 21 13 27 11 25 -8z m-5996 -8 c0 -8 -7 -15 -15 -15 -16 0 -20
12 -8 23 11 12 23 8 23 -8z m110 -6 c0 -18 -2 -19 -15 -9 -15 12 -12 30 6 30
5 0 9 -10 9 -21z m1147 -1 c-3 -8 -6 -5 -6 6 -1 11 2 17 5 13 3 -3 4 -12 1
-19z m1970 -25 c-3 -10 -5 -2 -5 17 0 19 2 27 5 18 2 -10 2 -26 0 -35z m-2737
33 c0 -2 -9 -6 -20 -9 -11 -3 -18 -1 -14 4 5 9 34 13 34 5z m1815 -15 c-14
-13 -133 -26 -120 -13 13 13 40 19 90 21 24 1 35 -3 30 -8z m703 -3 c-6 -18
-28 -21 -28 -4 0 9 7 16 16 16 9 0 14 -5 12 -12z m734 0 c-9 -9 -15 -9 -24 0
-9 9 -7 12 12 12 19 0 21 -3 12 -12z m-605 -45 c-3 -10 -5 -2 -5 17 0 19 2 27
5 18 2 -10 2 -26 0 -35z m-673 -14 c8 -37 -13 -54 -42 -33 -19 13 -20 18 -11
37 24 44 42 43 53 -4z m-807 -46 c-2 -16 -4 -5 -4 22 0 28 2 40 4 28 2 -13 2
-35 0 -50z m-971 46 c3 -6 1 -16 -4 -21 -13 -13 -45 8 -36 23 7 12 31 11 40
-2z m-626 -14 c0 -8 -7 -15 -15 -15 -16 0 -20 12 -8 23 11 12 23 8 23 -8z
m3680 -9 c0 -3 -4 -8 -10 -11 -5 -3 -10 -1 -10 4 0 6 5 11 10 11 6 0 10 -2 10
-4z m720 -6 c0 -5 -9 -14 -20 -20 -22 -12 -27 -1 -8 18 14 14 28 16 28 2z
m-5027 -34 c6 -14 0 -26 -14 -26 -3 0 -9 9 -12 20 -6 23 18 28 26 6z m4512 4
c-3 -5 -22 -10 -41 -10 -21 0 -33 4 -29 10 3 6 22 10 41 10 21 0 33 -4 29 -10z
m120 0 c3 -5 -1 -10 -10 -10 -9 0 -13 5 -10 10 3 6 8 10 10 10 2 0 7 -4 10
-10z m125 0 c0 -5 -4 -10 -10 -10 -5 0 -10 5 -10 10 0 6 5 10 10 10 6 0 10 -4
10 -10z m-5133 -172 c-2 -35 -3 -9 -3 57 0 66 1 94 3 63 2 -32 2 -86 0 -120z
m3550 135 c-3 -10 -5 -4 -5 12 0 17 2 24 5 18 2 -7 2 -21 0 -30z m1043 33 c0
-11 -19 -15 -25 -6 -3 5 1 10 9 10 9 0 16 -2 16 -4z m-989 -13 c4 -58 3 -153
-3 -153 -5 0 -8 29 -8 64 0 35 -3 71 -6 80 -3 9 -1 16 5 16 6 0 11 -3 12 -7z
m849 -3 c-20 -13 -33 -13 -25 0 3 6 14 10 23 10 15 0 15 -2 2 -10z m276 -5
c-22 -17 -46 -20 -46 -6 0 11 18 19 45 20 20 0 20 0 1 -14z m560 0 c-22 -16
-46 -20 -46 -7 0 15 13 22 39 22 25 -1 25 -1 7 -15z m-4716 -5 c0 -5 -7 -7
-15 -4 -8 4 -15 8 -15 10 0 2 7 4 15 4 8 0 15 -4 15 -10z m3186 -23 c0 -12 -5
-31 -14 -42 -14 -19 -14 -19 -8 5 3 14 6 36 6 49 0 29 13 20 16 -12z m291 27
c-3 -3 -12 -4 -19 -1 -8 3 -5 6 6 6 11 1 17 -2 13 -5z m30 -26 c-3 -7 -5 -2
-5 12 0 14 2 19 5 13 2 -7 2 -19 0 -25z m103 0 c0 -23 -3 -29 -9 -19 -8 12 -4
51 5 51 2 0 4 -15 4 -32z m-2557 -9 c-17 -17 -37 -1 -22 17 8 10 15 12 23 4 7
-7 7 -13 -1 -21z m-2108 1 c3 -5 1 -10 -4 -10 -6 0 -11 5 -11 10 0 6 2 10 4
10 3 0 8 -4 11 -10z m5675 -10 c-20 -13 -33 -13 -25 0 3 6 14 10 23 10 15 0
15 -2 2 -10z m-2530 -10 c0 -6 -12 -16 -27 -23 -16 -6 -33 -19 -40 -27 -10
-13 -14 -13 -25 -1 -10 11 -10 14 0 18 6 3 10 9 7 14 -4 5 1 6 9 3 8 -3 25 1
38 10 26 18 38 20 38 6z m127 -12 c-3 -8 -6 -5 -6 6 -1 11 2 17 5 13 3 -3 4
-12 1 -19z m-902 2 c-3 -5 -17 -10 -31 -10 -13 0 -24 5 -24 10 0 6 14 10 31
10 17 0 28 -4 24 -10z m155 0 c0 -5 -11 -10 -24 -10 -14 0 -28 5 -31 10 -4 6
7 10 24 10 17 0 31 -4 31 -10z m145 0 c-3 -5 -15 -10 -26 -10 -10 0 -19 5 -19
10 0 6 12 10 26 10 14 0 23 -4 19 -10z m142 4 c-3 -3 -12 -4 -19 -1 -8 3 -5 6
6 6 11 1 17 -2 13 -5z m2785 -15 c-24 -11 -49 -18 -55 -16 -7 2 8 11 33 20 62
21 74 19 22 -4z m-3832 -4 c0 -10 -11 -15 -35 -15 -24 0 -35 5 -35 15 0 10 11
15 35 15 24 0 35 -5 35 -15z m157 2 c-2 -7 -16 -12 -32 -12 -16 0 -30 5 -32
12 -3 7 9 11 32 11 23 0 35 -4 32 -11z m127 4 c7 -11 -14 -20 -31 -13 -7 2
-13 8 -13 13 0 12 37 12 44 0z m171 -1 c-3 -5 -15 -10 -25 -10 -10 0 -22 5
-25 10 -4 6 7 10 25 10 18 0 29 -4 25 -10z m2067 -30 c3 -17 0 -34 -6 -39 -8
-7 -12 4 -13 35 -2 49 12 52 19 4z m-3192 14 c0 -2 -9 -4 -20 -4 -11 0 -20 4
-20 9 0 5 9 7 20 4 11 -3 20 -7 20 -9z m192 4 c6 -16 -2 -58 -11 -58 -10 0
-31 52 -25 61 8 13 32 11 36 -3z m168 2 c13 -8 12 -11 -5 -24 -26 -20 -41 -20
-49 1 -11 27 24 42 54 23z m140 -5 c0 -8 -4 -15 -9 -15 -5 0 -11 7 -15 15 -3
9 0 15 9 15 8 0 15 -7 15 -15z m2859 1 c10 -11 4 -15 -31 -18 -51 -6 -60 -1
-34 18 25 18 50 18 65 0z m-3605 -11 c-8 -19 -43 -30 -56 -17 -16 16 0 32 32
32 22 0 28 -4 24 -15z m2292 7 c7 -5 3 -15 -12 -32 -19 -19 -24 -21 -24 -8 0
21 10 48 19 48 3 0 11 -4 17 -8z m1459 -30 c-6 -8 -35 12 -35 24 0 11 4 10 18
-3 10 -10 18 -19 17 -21z m-3625 13 c-13 -16 -40 -20 -40 -7 0 14 12 22 33 22
16 0 17 -3 7 -15z m3268 -48 c14 -4 14 -5 1 -6 -24 -2 -51 33 -42 55 6 15 8
13 15 -13 5 -17 16 -34 26 -36z m-4391 36 c6 -17 -36 -27 -53 -12 -14 12 -14
14 3 20 24 10 45 7 50 -8z m813 2 c0 -12 -7 -14 -27 -11 -16 2 -32 5 -36 5 -5
1 -5 6 -2 11 10 17 65 12 65 -5z m1450 1 c0 -20 -19 -31 -32 -18 -6 6 -7 15
-4 21 10 16 36 13 36 -3z m3765 4 c3 -5 1 -10 -4 -10 -6 0 -11 5 -11 10 0 6 2
10 4 10 3 0 8 -4 11 -10z m-3019 -15 c-11 -8 -27 -15 -35 -14 -9 0 -2 7 14 14
39 18 45 18 21 0z m1194 -16 c0 -11 -11 -11 -29 0 -7 5 -10 14 -6 20 5 9 10 9
21 0 8 -6 14 -15 14 -20z m1425 22 c-9 -7 -37 -19 -140 -57 -14 -5 -17 -4 -10
4 6 6 39 22 75 36 70 27 90 31 75 17z m-310 -11 c3 -5 1 -10 -4 -10 -6 0 -11
5 -11 10 0 6 2 10 4 10 3 0 8 -4 11 -10z m-1905 -19 c-13 -26 -14 -164 0 -156
7 4 8 -8 4 -37 -13 -89 -24 -59 -24 68 0 72 3 134 7 137 14 15 23 6 13 -12z
m-530 -28 c-41 -19 -167 -79 -280 -133 -113 -54 -225 -102 -250 -105 -25 -4
-53 -12 -64 -17 -10 -5 -46 -18 -80 -28 -33 -10 -92 -28 -131 -39 -38 -12
-106 -29 -150 -37 -44 -9 -84 -19 -90 -24 -5 -4 -62 -11 -125 -15 -63 -3 -137
-10 -165 -15 -27 -5 -65 -11 -82 -14 -25 -4 -33 -2 -33 10 0 8 4 13 8 10 5 -3
69 4 143 15 74 10 154 21 179 24 114 13 144 18 168 31 15 8 35 14 45 14 18 0
31 3 212 59 55 16 134 40 175 52 41 12 131 48 199 81 140 67 288 134 341 154
65 25 55 13 -20 -23z m592 -53 c2 -50 0 -90 -4 -90 -5 0 -8 24 -8 53 0 28 -3
69 -6 90 -4 23 -3 37 4 37 6 0 12 -35 14 -90z m1288 55 c0 -8 -4 -15 -10 -15
-5 0 -10 7 -10 15 0 8 5 15 10 15 6 0 10 -7 10 -15z m-1706 -11 c23 -9 20 -24
-4 -24 -11 0 -20 7 -20 15 0 17 2 18 24 9z m2373 -10 c-3 -3 -12 -4 -19 -1 -8
3 -5 6 6 6 11 1 17 -2 13 -5z m603 -3 c0 -6 -4 -13 -10 -16 -5 -3 -10 1 -10 9
0 9 5 16 10 16 6 0 10 -4 10 -9z m-3770 -16 c0 -8 -7 -15 -15 -15 -8 0 -15 7
-15 15 0 8 7 15 15 15 8 0 15 -7 15 -15z m1327 -7 c-3 -8 -6 -5 -6 6 -1 11 2
17 5 13 3 -3 4 -12 1 -19z m1005 -3 c3 -14 1 -28 -3 -31 -5 -3 -9 4 -9 15 0
12 -4 21 -10 21 -5 0 -10 5 -10 10 0 22 28 9 32 -15z m172 0 c3 -8 1 -15 -4
-15 -6 0 -10 7 -10 15 0 8 2 15 4 15 2 0 6 -7 10 -15z m-3324 -29 c-14 -14
-24 0 -16 21 6 15 8 15 16 3 6 -9 5 -19 0 -24z m3900 25 c0 -10 -30 -24 -37
-17 -3 3 -2 9 2 15 8 13 35 15 35 2z m-4705 -47 c0 -14 -3 -28 -7 -30 -4 -3
-8 12 -8 32 0 41 13 39 15 -2z m4622 5 c-31 -18 -247 -109 -259 -109 -18 0 3
16 37 28 17 6 73 29 125 51 91 38 135 52 97 30z m-5537 -19 c0 -5 -6 -10 -14
-10 -8 0 -18 5 -21 10 -3 6 3 10 14 10 12 0 21 -4 21 -10z m678 -15 c-3 -3 -9
2 -12 12 -6 14 -5 15 5 6 7 -7 10 -15 7 -18z m2672 15 c0 -5 -9 -10 -21 -10
-11 0 -17 5 -14 10 3 6 13 10 21 10 8 0 14 -4 14 -10z m167 -37 c-3 -10 -5 -2
-5 17 0 19 2 27 5 18 2 -10 2 -26 0 -35z m-967 13 c0 -19 -17 -29 -37 -22 -12
5 -13 9 -3 21 16 19 40 19 40 1z m-839 -39 c-13 -13 -26 -3 -16 12 3 6 11 8
17 5 6 -4 6 -10 -1 -17z m3169 3 c0 -5 -2 -10 -4 -10 -3 0 -8 5 -11 10 -3 6
-1 10 4 10 6 0 11 -4 11 -10z m-1128 -35 c-2 -14 -6 -25 -8 -25 -2 0 -4 11 -4
25 0 14 4 25 9 25 4 0 6 -11 3 -25z m-3752 -11 c0 -9 -5 -14 -12 -12 -18 6
-21 28 -4 28 9 0 16 -7 16 -16z m3360 1 c0 -9 -9 -15 -24 -15 -30 0 -43 17
-19 23 34 9 43 7 43 -8z m1880 1 c-27 -14 -89 -31 -79 -22 7 7 81 34 94 35 6
0 -1 -6 -15 -13z m375 -17 c-4 -5 -13 -9 -22 -9 -13 0 -13 3 -3 15 13 15 35
11 25 -6z m-4698 -11 c-3 -8 -6 -5 -6 6 -1 11 2 17 5 13 3 -3 4 -12 1 -19z
m2813 -6 c0 -12 -46 -32 -54 -25 -16 16 -4 33 24 33 17 0 30 -4 30 -8z m30 -8
c0 -8 -5 -12 -10 -9 -6 4 -8 11 -5 16 9 14 15 11 15 -7z m1380 7 c-26 -15 -66
-24 -55 -13 6 5 19 12 30 15 32 8 41 7 25 -2z m-4945 -11 c3 -5 1 -10 -4 -10
-6 0 -11 5 -11 10 0 6 2 10 4 10 3 0 8 -4 11 -10z m1525 -5 c0 -8 -7 -15 -15
-15 -8 0 -15 7 -15 15 0 8 7 15 15 15 8 0 15 -7 15 -15z m5130 -31 c0 -2 -9
-4 -21 -4 -11 0 -18 4 -14 10 5 8 35 3 35 -6z m143 9 c-7 -2 -19 -2 -25 0 -7
3 -2 5 12 5 14 0 19 -2 13 -5z m-3060 -15 c-17 -8 -29 -8 -45 0 -20 9 -18 11
22 11 40 0 42 -2 23 -11z m2407 -9 c0 -5 -9 -9 -20 -9 -19 0 -26 11 -14 23 8
8 34 -3 34 -14z m250 11 c0 -5 -9 -10 -21 -10 -11 0 -17 5 -14 10 3 6 13 10
21 10 8 0 14 -4 14 -10z m125 0 c-3 -5 -13 -10 -21 -10 -8 0 -14 5 -14 10 0 6
9 10 21 10 11 0 17 -4 14 -10z m-3355 -10 c0 -5 -9 -10 -19 -10 -11 0 -23 5
-26 10 -4 6 5 10 19 10 14 0 26 -4 26 -10z m2835 -11 c-8 -12 -35 -12 -35 0 0
11 22 20 33 14 4 -2 5 -9 2 -14z m275 11 c0 -13 -20 -13 -40 0 -12 8 -9 10 13
10 15 0 27 -4 27 -10z m-400 -9 c0 -6 -5 -13 -10 -16 -15 -9 -43 3 -35 15 8
13 45 13 45 1z m-3518 -33 c-15 -15 -26 -4 -18 18 5 13 9 15 18 6 9 -9 9 -15
0 -24z m3083 23 c3 -5 1 -12 -5 -16 -14 -9 -52 4 -45 16 8 12 42 12 50 0z
m155 -1 c8 -5 12 -12 8 -15 -10 -10 -49 5 -43 16 8 11 16 11 35 -1z m156 3
c-11 -12 -56 -14 -56 -3 0 5 14 10 32 10 17 0 28 -3 24 -7z m-276 -13 c0 -5
-4 -10 -10 -10 -5 0 -10 5 -10 10 0 6 5 10 10 10 6 0 10 -4 10 -10z m-4983
-14 c-5 -16 -24 -18 -30 -4 -3 9 3 14 14 14 11 0 18 -5 16 -10z m3053 4 c0
-13 -11 -13 -30 0 -12 8 -11 10 8 10 12 0 22 -4 22 -10z m1136 -5 c-11 -8 -36
-15 -55 -14 l-36 1 40 13 c56 19 75 18 51 0z m659 5 c4 -6 -6 -10 -22 -10 -22
0 -25 2 -13 10 19 12 27 12 35 0z m-557 -18 c2 -7 -3 -12 -12 -12 -9 0 -16 7
-16 16 0 17 22 14 28 -4z m139 12 c-3 -3 -12 -4 -19 -1 -8 3 -5 6 6 6 11 1 17
-2 13 -5z m143 -4 c0 -5 -7 -10 -15 -10 -8 0 -15 5 -15 10 0 6 7 10 15 10 8 0
15 -4 15 -10z m130 0 c0 -5 -9 -10 -21 -10 -11 0 -17 5 -14 10 3 6 13 10 21
10 8 0 14 -4 14 -10z m-3670 -15 c0 -8 -4 -15 -10 -15 -5 0 -10 7 -10 15 0 8
5 15 10 15 6 0 10 -7 10 -15z m3060 6 c0 -4 -15 -11 -32 -14 -18 -3 -49 -9
-68 -13 -32 -7 -34 -6 -19 9 9 9 38 17 65 20 27 2 50 4 52 5 1 1 2 -2 2 -7z
m-4108 -33 c-6 -6 -15 -8 -19 -4 -4 4 -1 11 7 16 8 5 17 7 19 4 3 -2 -1 -10
-7 -16z m5658 12 c0 -5 -4 -10 -10 -10 -5 0 -10 5 -10 10 0 6 5 10 10 10 6 0
10 -4 10 -10z m2310 6 c0 -3 -4 -8 -10 -11 -5 -3 -10 -1 -10 4 0 6 5 11 10 11
6 0 10 -2 10 -4z m-8000 -16 c0 -5 -5 -10 -11 -10 -5 0 -7 5 -4 10 3 6 8 10
11 10 2 0 4 -4 4 -10z m955 -10 c-3 -6 -44 -9 -93 -9 -65 1 -78 4 -52 9 55 12
152 12 145 0z m1845 -1 c0 -12 -30 -19 -83 -19 -29 0 -70 -9 -93 -19 -23 -10
-57 -22 -75 -25 l-34 -7 35 20 c19 10 55 25 80 32 25 7 48 15 52 19 10 8 118
7 118 -1z m-1793 -5 c-3 -3 -12 -4 -19 -1 -8 3 -5 6 6 6 11 1 17 -2 13 -5z
m2930 0 c-3 -3 -12 -4 -19 -1 -8 3 -5 6 6 6 11 1 17 -2 13 -5z m1043 -15 c0
-5 -7 -9 -15 -9 -15 0 -20 12 -9 23 8 8 24 -1 24 -14z m-5620 1 c0 -5 -2 -10
-4 -10 -3 0 -8 5 -11 10 -3 6 -1 10 4 10 6 0 11 -4 11 -10z m2560 -15 c0 -14
-22 -23 -65 -26 -34 -2 -38 0 -25 16 7 9 21 13 35 9 13 -3 26 -1 29 5 10 16
26 13 26 -4z m265 -6 c-8 -12 -65 -12 -65 0 0 10 49 20 63 13 4 -2 5 -8 2 -13z
m140 11 c-3 -5 -17 -10 -31 -10 -14 0 -22 4 -19 10 3 6 17 10 31 10 14 0 22
-4 19 -10z m145 0 c0 -5 -9 -10 -20 -10 -11 0 -20 5 -20 10 0 6 9 10 20 10 11
0 20 -4 20 -10z m1780 -10 c0 -11 -4 -20 -9 -20 -11 0 -22 26 -14 34 12 12 23
5 23 -14z m-2222 -15 c-3 -3 -19 -3 -34 1 l-29 8 25 6 c24 7 50 -4 38 -15z
m-303 0 c0 -5 -15 -11 -32 -13 -32 -3 -45 11 -20 22 19 8 52 2 52 -9z m-1105
-1 c0 -8 -19 -13 -24 -6 -3 5 1 9 9 9 8 0 15 -2 15 -3z m465 -18 c-20 -14 -35
-12 -35 5 0 5 12 9 27 9 26 0 26 -1 8 -14z m175 4 c0 -5 -13 -10 -30 -10 -16
0 -30 5 -30 10 0 6 14 10 30 10 17 0 30 -4 30 -10z m155 0 c-3 -5 -20 -10 -36
-10 -18 0 -28 4 -24 10 3 6 20 10 36 10 18 0 28 -4 24 -10z m150 0 c-3 -5 -19
-10 -36 -10 -16 0 -29 5 -29 10 0 6 16 10 36 10 21 0 33 -4 29 -10z m-1120
-10 c-4 -6 5 -10 19 -10 32 0 34 -16 3 -24 -14 -3 -39 2 -61 13 -29 15 -33 20
-19 24 34 9 64 7 58 -3z m335 -10 c12 -8 12 -10 -3 -16 -22 -8 -50 3 -42 16 8
12 25 13 45 0z m160 0 c0 -5 -13 -10 -30 -10 -16 0 -30 5 -30 10 0 6 14 10 30
10 17 0 30 -4 30 -10z m1535 0 c-11 -5 -27 -9 -35 -9 -9 0 -8 4 5 9 11 5 27 9
35 9 9 0 8 -4 -5 -9z m237 -22 c-15 -15 -26 -4 -18 18 5 13 9 15 18 6 9 -9 9
-15 0 -24z m2268 12 c0 -5 -7 -10 -15 -10 -8 0 -15 5 -15 10 0 6 7 10 15 10 8
0 15 -4 15 -10z m-5612 -32 c3 -15 -4 -18 -32 -18 -24 0 -36 5 -36 14 0 28 63
31 68 4z m617 12 c-3 -5 -17 -10 -31 -10 -13 0 -24 5 -24 10 0 6 14 10 31 10
17 0 28 -4 24 -10z m140 0 c-3 -5 -15 -10 -26 -10 -10 0 -19 5 -19 10 0 6 12
10 26 10 14 0 23 -4 19 -10z m1785 -10 c0 -11 -7 -20 -15 -20 -15 0 -21 21 -8
33 12 13 23 7 23 -13z m435 0 c-28 -12 -37 -12 -30 0 3 6 16 10 28 9 21 0 21
-1 2 -9z m1905 -5 c0 -8 -4 -15 -10 -15 -5 0 -10 7 -10 15 0 8 5 15 10 15 6 0
10 -7 10 -15z m-3165 -35 c3 -5 -1 -10 -10 -10 -9 0 -13 5 -10 10 3 6 8 10 10
10 2 0 7 -4 10 -10z m1135 0 c-8 -5 -19 -10 -25 -10 -5 0 -3 5 5 10 8 5 20 10
25 10 6 0 3 -5 -5 -10z m-75 -29 c-16 -13 -147 -62 -153 -57 -3 3 4 9 14 12
10 4 44 17 74 30 58 25 81 30 65 15z m575 -6 c0 -8 -4 -15 -9 -15 -13 0 -22
16 -14 24 11 11 23 6 23 -9z m2255 5 c-3 -5 -10 -10 -16 -10 -5 0 -9 5 -9 10
0 6 7 10 16 10 8 0 12 -4 9 -10z m-3065 -36 c0 -17 -22 -14 -28 4 -2 7 3 12
12 12 9 0 16 -7 16 -16z m2341 1 c-1 -15 -24 -12 -29 3 -3 9 2 13 12 10 10 -1
17 -7 17 -13z m-3151 -25 c0 -5 -9 -10 -20 -10 -11 0 -20 5 -20 10 0 6 9 10
20 10 11 0 20 -4 20 -10z m822 -33 c-6 -7 -9 -23 -5 -35 4 -16 1 -22 -11 -22
-9 0 -16 7 -16 16 0 22 19 54 32 54 7 0 7 -4 0 -13z m808 -8 c0 -5 -7 -9 -15
-9 -15 0 -20 12 -9 23 8 8 24 -1 24 -14z m2265 12 c3 -5 -4 -13 -16 -16 -23
-8 -34 -1 -24 14 8 13 32 14 40 2z m-1878 -7 c-3 -3 -12 -4 -19 -1 -8 3 -5 6
6 6 11 1 17 -2 13 -5z m1133 -3 c0 -6 -4 -13 -10 -16 -5 -3 -10 1 -10 9 0 9 5
16 10 16 6 0 10 -4 10 -9z m-1295 -36 c-33 -8 -67 -14 -75 -13 -27 0 74 26
105 26 18 0 6 -5 -30 -13z m-3585 -5 c0 -5 -4 -10 -10 -10 -5 0 -10 5 -10 10
0 6 5 10 10 10 6 0 10 -4 10 -10z m4890 0 c0 -5 -7 -10 -15 -10 -8 0 -15 5
-15 10 0 6 7 10 15 10 8 0 15 -4 15 -10z m-3150 -31 c0 -15 -30 -23 -42 -11
-6 6 -7 15 -4 20 7 12 46 4 46 -9z m675 11 c-3 -5 -12 -10 -18 -10 -7 0 -6 4
3 10 19 12 23 12 15 0z m1000 -12 c-22 -4 -49 -12 -60 -17 -21 -9 -357 -94
-460 -116 -33 -8 -77 -21 -97 -29 -21 -9 -50 -16 -65 -15 -32 1 114 51 217 74
36 9 160 39 275 69 116 29 214 51 220 47 5 -3 -8 -9 -30 -13z m2210 -8 c3 -6
-1 -13 -10 -16 -19 -8 -30 0 -20 15 8 14 22 14 30 1z m1385 -36 c0 -2 -13 -4
-30 -4 -16 0 -30 4 -30 8 0 5 14 7 30 4 17 -2 30 -6 30 -8z m-2120 -4 c0 -5
-6 -10 -14 -10 -8 0 -18 5 -21 10 -3 6 3 10 14 10 12 0 21 -4 21 -10z m1840 0
c0 -5 -7 -10 -15 -10 -8 0 -15 5 -15 10 0 6 7 10 15 10 8 0 15 -4 15 -10z
m120 0 c-19 -13 -30 -13 -30 0 0 6 10 10 23 10 18 0 19 -2 7 -10z m-4292 -12
c-6 -18 -28 -21 -28 -4 0 9 7 16 16 16 9 0 14 -5 12 -12z m4052 2 c0 -5 -4
-10 -9 -10 -6 0 -13 5 -16 10 -3 6 1 10 9 10 9 0 16 -4 16 -10z m-149 -15 c-1
-15 -24 -12 -29 3 -3 9 2 13 12 10 10 -1 17 -7 17 -13z m-253 -7 c-7 -19 -38
-22 -38 -4 0 10 9 16 21 16 12 0 19 -5 17 -12z m124 -10 c-6 -6 -15 -8 -19 -4
-4 4 -1 11 7 16 19 12 27 3 12 -12z m-4107 2 c-3 -5 -11 -10 -16 -10 -6 0 -7
5 -4 10 3 6 11 10 16 10 6 0 7 -4 4 -10z m3720 -11 c-8 -12 -55 -12 -55 0 0
10 39 20 53 13 4 -2 5 -8 2 -13z m135 11 c0 -5 -12 -10 -26 -10 -14 0 -23 4
-19 10 3 6 15 10 26 10 10 0 19 -4 19 -10z m-4341 -25 c-9 -9 -23 -13 -32 -9
-28 10 -19 24 15 24 29 0 31 -2 17 -15z m3919 3 c-7 -20 -58 -23 -58 -4 0 11
10 16 31 16 20 0 29 -4 27 -12z m157 2 c-3 -5 -17 -10 -31 -10 -14 0 -22 4
-19 10 3 6 17 10 31 10 14 0 22 -4 19 -10z m-2447 -18 c2 -7 -6 -12 -17 -12
-21 0 -27 11 -14 24 9 9 26 2 31 -12z m2042 -3 c0 -5 -11 -9 -25 -9 -28 0 -34
16 -7 23 20 4 32 -1 32 -14z m130 11 c0 -5 -11 -10 -25 -10 -14 0 -25 5 -25
10 0 6 11 10 25 10 14 0 25 -4 25 -10z m-270 -10 c0 -5 -7 -10 -15 -10 -8 0
-15 5 -15 10 0 6 7 10 15 10 8 0 15 -4 15 -10z m-4374 -9 c-8 -12 -46 -21 -46
-11 0 9 18 18 38 19 7 1 11 -3 8 -8z m4104 -1 c0 -5 -9 -10 -21 -10 -11 0 -17
5 -14 10 3 6 13 10 21 10 8 0 14 -4 14 -10z m140 0 c0 -5 -11 -10 -25 -10 -14
0 -25 5 -25 10 0 6 11 10 25 10 14 0 25 -4 25 -10z m-235 -10 c4 -6 -12 -10
-39 -10 -25 0 -46 5 -46 10 0 6 18 10 39 10 22 0 43 -4 46 -10z m-2353 -32
c-15 -15 -26 -4 -18 18 5 13 9 15 18 6 9 -9 9 -15 0 -24z m2150 10 c-6 -6 -16
-7 -22 -3 -9 6 -9 9 1 16 17 10 34 0 21 -13z m-2005 -14 c-3 -3 -12 -4 -19 -1
-8 3 -5 6 6 6 11 1 17 -2 13 -5z m1443 -4 c0 -5 -7 -10 -15 -10 -8 0 -15 5
-15 10 0 6 7 10 15 10 8 0 15 -4 15 -10z m-2400 -15 c0 -8 -6 -15 -14 -15 -17
0 -28 14 -19 24 12 12 33 6 33 -9z m920 11 c0 -2 -9 -6 -20 -9 -11 -3 -18 -1
-14 4 5 9 34 13 34 5z m2968 -14 c2 -7 -3 -12 -12 -12 -9 0 -16 7 -16 16 0 17
22 14 28 -4z m-1781 2 c-3 -3 -12 -4 -19 -1 -8 3 -5 6 6 6 11 1 17 -2 13 -5z
m-427 -15 c0 -10 -80 -23 -88 -14 -3 3 -1 9 6 14 15 9 82 9 82 0z m143 4 c-7
-2 -19 -2 -25 0 -7 3 -2 5 12 5 14 0 19 -2 13 -5z m-298 -12 c3 -5 1 -13 -5
-16 -15 -9 -43 3 -35 15 8 13 32 13 40 1z m-2360 -10 c3 -5 1 -12 -5 -16 -14
-9 -52 4 -45 16 8 12 42 12 50 0z m1655 -5 c0 -16 -21 -26 -58 -26 -15 0 -64
-9 -110 -20 -45 -11 -102 -22 -125 -25 -23 -2 -60 -9 -82 -15 -71 -17 -84 -12
-37 15 24 14 48 22 54 19 15 -9 119 6 113 17 -4 5 17 9 47 10 29 0 82 9 118
19 82 23 80 23 80 6z m420 -1 c0 -10 -10 -15 -30 -15 -47 0 -35 27 13 29 9 1
17 -6 17 -14z m160 3 c0 -4 -16 -8 -35 -8 -19 0 -35 4 -35 10 0 5 16 9 35 8
19 -1 35 -5 35 -10z m1760 -3 c0 -8 -6 -15 -14 -15 -17 0 -28 14 -19 24 12 12
33 6 33 -9z m-2220 -5 c0 -5 -12 -10 -27 -10 -22 0 -25 2 -13 10 20 13 40 13
40 0z m140 -5 c0 -8 -9 -15 -20 -15 -11 0 -20 7 -20 15 0 8 9 15 20 15 11 0
20 -7 20 -15z m-203 -1 c-3 -3 -12 -4 -19 -1 -8 3 -5 6 6 6 11 1 17 -2 13 -5z
m-857 -38 c-8 -8 -33 -17 -55 -20 l-40 -6 40 20 c50 24 77 27 55 6z m150 5 c0
-9 -52 -22 -60 -15 -7 7 23 24 43 24 9 0 17 -4 17 -9z m150 0 c0 -10 -30 -24
-37 -17 -3 3 -2 9 2 15 8 13 35 15 35 2z m-484 -28 c-3 -3 -13 -2 -23 2 -17 7
-17 8 2 15 19 7 34 -5 21 -17z m4054 11 c0 -17 -22 -14 -28 4 -2 7 3 12 12 12
9 0 16 -7 16 -16z m-4211 -25 c-33 -8 -44 0 -22 16 14 10 21 11 32 2 11 -10 9
-13 -10 -18z m-145 15 c29 -11 16 -24 -24 -24 -38 0 -49 8 -33 23 8 9 36 9 57
1z m2101 -3 c3 -5 1 -13 -5 -16 -15 -9 -43 3 -35 15 8 13 32 13 40 1z m-2257
-20 c3 -9 0 -11 -7 -7 -7 4 -18 3 -26 -4 -15 -13 -31 3 -20 21 9 14 47 7 53
-10z m-148 1 c0 -13 -78 -34 -100 -27 -23 7 -26 21 -7 28 21 9 107 7 107 -1z
m3931 -7 c0 -5 -9 -11 -21 -13 -20 -3 -27 8 -13 22 10 9 34 3 34 -9z m-4268
-10 c1 -5 -13 -11 -30 -13 -31 -3 -42 6 -26 22 10 10 53 3 56 -9z m165 3 c-5
-15 -42 -22 -64 -14 -25 10 -5 26 32 26 24 0 34 -4 32 -12z m1292 3 c-8 -5
-35 -12 -60 -16 -25 -3 -76 -17 -115 -29 -38 -13 -101 -34 -140 -46 -38 -12
-76 -25 -85 -27 -8 -3 -5 2 7 11 12 9 24 29 26 44 4 26 4 26 12 5 4 -13 10
-23 12 -23 3 0 40 11 82 25 132 43 303 80 261 56z m477 -25 c-4 -9 -11 -16
-17 -16 -11 0 -14 33 -3 44 11 10 26 -11 20 -28z m-2093 15 c10 -15 -43 -19
-55 -5 -9 11 -6 14 19 14 17 0 33 -4 36 -9z m5156 -11 c0 -5 -5 -10 -11 -10
-5 0 -7 5 -4 10 3 6 8 10 11 10 2 0 4 -4 4 -10z m-2260 -50 c12 -7 12 -12 3
-21 -9 -9 -16 -9 -27 1 -26 21 -5 39 24 20z m1534 -8 c2 -4 1 -14 -3 -20 -10
-17 -41 -4 -34 14 6 15 29 19 37 6z m-4003 -17 c0 -13 -41 -19 -41 -7 0 11 20
22 33 18 5 -1 8 -6 8 -11z m5439 -5 c0 -5 -4 -10 -10 -10 -5 0 -10 5 -10 10 0
6 5 10 10 10 6 0 10 -4 10 -10z m-3771 -9 c16 -10 6 -31 -14 -31 -17 0 -28 17
-20 30 8 12 16 12 34 1z m-890 -25 c-2 -2 -17 -6 -34 -10 -22 -5 -26 -4 -15 4
14 9 59 15 49 6z m58 -28 c-3 -7 -5 -2 -5 12 0 14 2 19 5 13 2 -7 2 -19 0 -25z
m3903 22 c0 -5 -7 -10 -15 -10 -8 0 -15 5 -15 10 0 6 7 10 15 10 8 0 15 -4 15
-10z m-4045 -10 c-3 -5 -15 -10 -25 -10 -10 0 -20 -4 -22 -9 -1 -4 -13 -11
-25 -15 -18 -6 -22 -4 -17 8 3 8 22 19 42 24 50 13 54 14 47 2z m1790 -25 c0
-5 -10 -11 -22 -13 -16 -2 -23 2 -23 13 0 11 7 15 23 13 12 -2 22 -7 22 -13z
m1518 -10 c1 -5 -6 -11 -15 -13 -11 -2 -18 3 -18 13 0 17 30 18 33 0z m-3433
-10 c-7 -9 -15 -13 -19 -10 -3 3 1 10 9 15 21 14 24 12 10 -5z m4870 5 c0 -5
-2 -10 -4 -10 -3 0 -8 5 -11 10 -3 6 -1 10 4 10 6 0 11 -4 11 -10z m-5435 -10
c-3 -5 -13 -10 -21 -10 -8 0 -14 5 -14 10 0 6 9 10 21 10 11 0 17 -4 14 -10z
m1678 -15 c-3 -13 -53 -20 -53 -7 0 15 13 23 35 20 11 -2 19 -7 18 -13z m3061
-14 c3 -5 -1 -12 -10 -15 -22 -9 -24 -8 -24 9 0 16 25 21 34 6z m1216 -17 c0
-17 -22 -14 -28 4 -2 7 3 12 12 12 9 0 16 -7 16 -16z m153 9 c-7 -2 -19 -2
-25 0 -7 3 -2 5 12 5 14 0 19 -2 13 -5z m-393 -12 c0 -6 -5 -13 -10 -16 -15
-9 -43 3 -35 15 8 13 45 13 45 1z m115 -1 c3 -5 -1 -10 -9 -10 -9 0 -16 5 -16
10 0 6 4 10 9 10 6 0 13 -4 16 -10z m-4985 -10 c0 -5 -9 -10 -21 -10 -11 0
-17 5 -14 10 3 6 13 10 21 10 8 0 14 -4 14 -10z m4745 0 c-3 -5 -15 -10 -25
-10 -10 0 -22 5 -25 10 -4 6 7 10 25 10 18 0 29 -4 25 -10z m-3120 -11 c10
-15 -1 -23 -20 -15 -9 3 -13 10 -10 16 8 13 22 13 30 -1z m1535 -8 c0 -4 -3
-11 -7 -14 -8 -9 -34 13 -28 24 6 9 35 1 35 -10z m1311 4 c0 -13 -41 -19 -41
-7 0 11 20 22 33 18 5 -1 8 -6 8 -11z m139 -4 c0 -15 -16 -22 -34 -15 -25 9
-19 24 9 24 14 0 25 -4 25 -9z m-390 -16 c0 -10 -9 -14 -25 -13 -25 2 -31 9
-18 21 12 13 43 7 43 -8z m130 5 c0 -13 -20 -13 -40 0 -12 8 -9 10 13 10 15 0
27 -4 27 -10z m-5199 -15 c-1 -15 -24 -12 -29 3 -3 9 2 13 12 10 10 -1 17 -7
17 -13z m4923 6 c3 -5 -1 -12 -10 -15 -27 -11 -37 -7 -24 9 14 17 26 19 34 6z
m-134 -9 c0 -10 -45 -32 -65 -32 -8 0 -15 6 -15 14 0 10 13 16 38 19 20 2 38
4 40 5 1 1 2 -2 2 -6z m-3102 -14 c-3 -7 -13 -13 -23 -13 -10 0 -20 6 -22 13
-3 7 5 12 22 12 17 0 25 -5 23 -12z m2972 2 c0 -5 -9 -10 -20 -10 -11 0 -20 5
-20 10 0 6 9 10 20 10 11 0 20 -4 20 -10z m-130 -10 c0 -5 -11 -10 -25 -10
-14 0 -25 5 -25 10 0 6 11 10 25 10 14 0 25 -4 25 -10z m-420 -10 c0 -5 -9
-10 -21 -10 -11 0 -17 5 -14 10 3 6 13 10 21 10 8 0 14 -4 14 -10z m130 0 c0
-5 -11 -10 -25 -10 -14 0 -25 5 -25 10 0 6 11 10 25 10 14 0 25 -4 25 -10z
m145 -10 c-3 -5 -12 -10 -20 -10 -8 0 -17 5 -20 10 -4 6 5 10 20 10 15 0 24
-4 20 -10z m-3515 -15 c0 -9 -9 -15 -25 -15 -16 0 -25 6 -25 15 0 9 9 15 25
15 16 0 25 -6 25 -15z m3136 4 c12 -21 -12 -30 -40 -15 -24 12 -25 15 -9 19
31 8 42 7 49 -4z m-1523 -14 c1 -5 -6 -11 -15 -13 -11 -2 -18 3 -18 13 0 17
30 18 33 0z m1352 5 c-3 -5 -17 -10 -31 -10 -13 0 -24 5 -24 10 0 6 14 10 31
10 17 0 28 -4 24 -10z m1625 -10 c0 -5 -4 -10 -9 -10 -6 0 -13 5 -16 10 -3 6
1 10 9 10 9 0 16 -4 16 -10z m-1773 -6 c-3 -3 -12 -4 -19 -1 -8 3 -5 6 6 6 11
1 17 -2 13 -5z m-3683 -19 c3 -9 0 -15 -9 -15 -8 0 -15 7 -15 15 0 8 4 15 9
15 5 0 11 -7 15 -15z m1686 -10 c0 -9 -9 -15 -25 -15 -24 0 -32 10 -18 23 12
13 43 7 43 -8z m1561 -8 c-13 -13 -26 -3 -16 12 3 6 11 8 17 5 6 -4 6 -10 -1
-17z m-138 6 c-7 -2 -19 -2 -25 0 -7 3 -2 5 12 5 14 0 19 -2 13 -5z m1637 -3
c0 -5 -9 -10 -20 -10 -11 0 -20 5 -20 10 0 6 9 10 20 10 11 0 20 -4 20 -10z
m-1920 -10 c0 -5 -9 -10 -21 -10 -11 0 -17 5 -14 10 3 6 13 10 21 10 8 0 14
-4 14 -10z m-145 -10 c-3 -5 -17 -10 -31 -10 -14 0 -22 4 -19 10 3 6 17 10 31
10 14 0 22 -4 19 -10z m-2838 -6 c-3 -3 -12 -4 -19 -1 -8 3 -5 6 6 6 11 1 17
-2 13 -5z m2666 -9 c1 -6 -10 -11 -25 -13 -31 -4 -39 14 -10 21 23 6 33 4 35
-8z m37 5 c0 -5 -2 -10 -4 -10 -3 0 -8 5 -11 10 -3 6 -1 10 4 10 6 0 11 -4 11
-10z m-1680 -10 c0 -5 -9 -10 -20 -10 -11 0 -20 5 -20 10 0 6 9 10 20 10 11 0
20 -4 20 -10z m1375 -10 c-3 -5 -15 -10 -25 -10 -10 0 -22 5 -25 10 -4 6 7 10
25 10 18 0 29 -4 25 -10z m155 0 c0 -5 -14 -10 -31 -10 -17 0 -28 4 -24 10 3
6 17 10 31 10 13 0 24 -4 24 -10z m1610 -11 c0 -5 -4 -9 -10 -9 -5 0 -10 7
-10 16 0 8 5 12 10 9 6 -3 10 -10 10 -16z m1450 11 c0 -5 -7 -10 -16 -10 -8 0
-12 5 -9 10 3 6 10 10 16 10 5 0 9 -4 9 -10z m-5697 -7 c-7 -2 -19 -2 -25 0
-7 3 -2 5 12 5 14 0 19 -2 13 -5z m2165 1 c32 -9 27 -24 -7 -24 -30 0 -46 12
-34 24 8 7 12 7 41 0z m167 -4 c-3 -5 -17 -10 -31 -10 -13 0 -24 5 -24 10 0 6
14 10 31 10 17 0 28 -4 24 -10z m-295 -15 c0 -16 -17 -19 -44 -9 -26 10 -18
24 14 24 20 0 30 -5 30 -15z m-1790 -19 c0 -20 -19 -31 -32 -18 -6 6 -7 15 -4
21 10 16 36 13 36 -3z m1675 4 c13 -21 -6 -27 -55 -17 -27 5 -50 14 -50 18 0
12 97 11 105 -1z m-337 -17 c4 -14 -27 -17 -66 -6 -18 4 -20 8 -10 14 18 13
71 7 76 -8z m142 7 c0 -5 -16 -10 -35 -10 -19 0 -35 5 -35 10 0 6 16 10 35 10
19 0 35 -4 35 -10z m3270 0 c0 -5 -13 -10 -30 -10 -16 0 -30 5 -30 10 0 6 14
10 30 10 17 0 30 -4 30 -10z m-3565 -15 c0 -12 -40 -19 -61 -11 -9 3 -12 11
-9 16 8 14 70 9 70 -5z m-155 -5 c0 -5 -18 -10 -41 -10 -24 0 -38 4 -34 10 3
6 22 10 41 10 19 0 34 -4 34 -10z m-480 -24 c0 -7 -12 -16 -27 -19 -33 -7 -55
9 -33 23 23 14 60 12 60 -4z m160 -2 c0 -11 -8 -14 -32 -12 -46 4 -49 28 -4
28 26 0 36 -4 36 -16z m158 4 c-3 -7 -17 -13 -33 -13 -16 0 -30 6 -32 13 -3 8
7 12 32 12 25 0 35 -4 33 -12z m1607 2 c11 -17 -5 -32 -21 -19 -7 6 -11 15 -8
20 7 12 21 11 29 -1z m2977 -5 c0 -5 -5 -11 -11 -13 -6 -2 -11 4 -11 13 0 9 5
15 11 13 6 -2 11 -8 11 -13z m-5057 -4 c8 -14 -30 -32 -49 -25 -9 3 -16 12
-16 20 0 16 55 20 65 5z m-162 -16 c1 -6 -15 -11 -35 -13 -43 -4 -52 15 -10
21 35 5 43 4 45 -8z m3777 5 c0 -5 -4 -10 -9 -10 -6 0 -13 5 -16 10 -3 6 1 10
9 10 9 0 16 -4 16 -10z m-4100 -25 c0 -10 -11 -15 -35 -15 -33 0 -43 8 -28 23
13 14 63 7 63 -8z m160 6 c0 -14 -9 -18 -62 -25 -39 -6 -48 -4 -48 8 0 8 6 17
13 19 22 9 97 7 97 -2z m-320 -17 c0 -11 -8 -14 -32 -12 -46 4 -49 28 -4 28
26 0 36 -4 36 -16z m1930 1 c0 -9 -9 -15 -21 -15 -18 0 -19 2 -9 15 7 8 16 15
21 15 5 0 9 -7 9 -15z m3065 6 c3 -5 1 -13 -5 -16 -15 -9 -43 3 -35 15 8 13
32 13 40 1z m-1495 -11 c0 -5 -4 -10 -10 -10 -5 0 -10 5 -10 10 0 6 5 10 10
10 6 0 10 -4 10 -10z m-3675 -10 c8 -13 -20 -24 -42 -16 -15 6 -15 8 -3 16 20
13 37 12 45 0z m-335 -4 c0 -3 -4 -8 -10 -11 -5 -3 -10 -1 -10 4 0 6 5 11 10
11 6 0 10 -2 10 -4z m150 -6 c0 -5 -5 -10 -11 -10 -5 0 -7 5 -4 10 3 6 8 10
11 10 2 0 4 -4 4 -10z m-252 -22 c-5 -14 -51 -23 -74 -14 -27 10 -4 26 37 26
28 0 39 -4 37 -12z m1720 0 c-3 -7 -11 -13 -18 -13 -7 0 -15 6 -17 13 -3 7 4
12 17 12 13 0 20 -5 18 -12z m1632 3 c0 -14 -18 -23 -30 -16 -6 4 -8 11 -5 16
8 12 35 12 35 0z m1530 -1 c0 -5 -9 -10 -20 -10 -11 0 -20 5 -20 10 0 6 9 10
20 10 11 0 20 -4 20 -10z m1440 0 c0 -5 -7 -10 -15 -10 -8 0 -15 5 -15 10 0 6
7 10 15 10 8 0 15 -4 15 -10z m-705 -50 c4 -6 -6 -10 -22 -10 -22 0 -25 2 -13
10 19 12 27 12 35 0z m-4730 -15 c0 -5 -15 -11 -32 -13 -25 -3 -33 1 -33 13 0
12 8 16 33 13 17 -2 32 -7 32 -13z m1653 3 c-7 -19 -38 -22 -38 -4 0 10 9 16
21 16 12 0 19 -5 17 -12z m1582 2 c0 -5 -7 -10 -15 -10 -8 0 -15 5 -15 10 0 6
7 10 15 10 8 0 15 -4 15 -10z m-2402 -33 c14 -17 -1 -42 -21 -34 -10 4 -13 13
-10 26 6 24 16 27 31 8z m5112 3 c0 -5 -4 -10 -10 -10 -5 0 -10 5 -10 10 0 6
5 10 10 10 6 0 10 -4 10 -10z m-6824 -11 c10 -17 -12 -32 -37 -24 -22 7 -22 8
-4 21 23 17 32 17 41 3z m3338 -5 c9 -22 8 -24 -9 -24 -8 0 -15 9 -15 20 0 24
15 27 24 4z m1541 6 c4 -6 -5 -10 -19 -10 -14 0 -26 5 -26 10 0 6 9 10 19 10
11 0 23 -4 26 -10z m1835 -5 c0 -8 -9 -15 -20 -15 -25 0 -26 17 -2 23 9 3 18
5 20 6 1 0 2 -6 2 -14z m-392 -7 c-7 -19 -38 -22 -38 -4 0 10 9 16 21 16 12 0
19 -5 17 -12z m243 -3 c-1 -15 -24 -12 -29 3 -3 9 2 13 12 10 10 -1 17 -7 17
-13z m-117 -4 c3 -5 -3 -11 -15 -14 -16 -4 -18 -3 -8 9 13 16 16 17 23 5z
m-840 -26 c3 -9 0 -15 -8 -15 -8 0 -16 7 -20 15 -3 9 0 15 8 15 8 0 16 -7 20
-15z m586 5 c17 -11 16 -11 -22 -14 -27 -2 -35 4 -21 17 9 10 25 8 43 -3z
m-5326 -6 c28 -11 17 -24 -20 -24 -31 0 -35 2 -24 15 14 17 21 18 44 9z m1686
-9 c0 -9 -9 -15 -25 -15 -24 0 -32 10 -18 23 12 13 43 7 43 -8z m1565 5 c3 -6
-1 -13 -10 -16 -19 -8 -30 0 -20 15 8 14 22 14 30 1z m1815 -9 c0 -10 -24 -21
-46 -21 -8 0 -14 4 -14 9 0 8 10 12 53 20 4 0 7 -3 7 -8z m135 -1 c-3 -5 -17
-10 -31 -10 -13 0 -24 5 -24 10 0 6 14 10 31 10 17 0 28 -4 24 -10z m247 -12
c-6 -6 -16 -7 -22 -3 -9 6 -9 9 1 16 17 10 34 0 21 -13z m-532 -8 c-20 -13
-40 -13 -40 0 0 6 12 10 28 10 21 0 24 -2 12 -10z m-4062 -46 c-4 -3 -16 -3
-28 1 -17 5 -19 9 -9 21 11 13 14 13 28 0 8 -9 12 -18 9 -22z m1620 25 c-2 -6
-8 -10 -13 -10 -5 0 -11 4 -13 10 -2 6 4 11 13 11 9 0 15 -5 13 -11z m1532 1
c0 -5 -7 -10 -15 -10 -8 0 -15 5 -15 10 0 6 7 10 15 10 8 0 15 -4 15 -10z
m643 -5 c1 -5 -6 -11 -15 -13 -11 -2 -18 3 -18 13 0 17 30 18 33 0z m-123 -5
c0 -5 -11 -10 -25 -10 -14 0 -25 5 -25 10 0 6 11 10 25 10 14 0 25 -4 25 -10z
m-5390 -10 c0 -5 -13 -10 -30 -10 -16 0 -30 5 -30 10 0 6 14 10 30 10 17 0 30
-4 30 -10z m5250 0 c0 -5 -11 -10 -24 -10 -14 0 -28 5 -31 10 -4 6 7 10 24 10
17 0 31 -4 31 -10z m-135 -10 c-3 -5 -17 -10 -31 -10 -13 0 -24 5 -24 10 0 6
14 10 31 10 17 0 28 -4 24 -10z m490 -11 c-8 -12 -35 -12 -35 0 0 11 22 20 33
14 4 -2 5 -9 2 -14z m-632 4 c-7 -2 -21 -2 -30 0 -10 3 -4 5 12 5 17 0 24 -2
18 -5z m-2427 -14 c10 -17 -13 -36 -27 -22 -12 12 -4 33 11 33 5 0 12 -5 16
-11z m2284 -3 c0 -8 9 -18 20 -21 11 -3 20 -11 20 -16 0 -14 -8 -11 -40 13
-33 24 -38 38 -15 38 8 0 15 -6 15 -14z m-3951 -12 c11 -9 -14 -24 -32 -18
-28 8 -30 11 -22 24 6 9 41 6 54 -6z m3235 7 c3 -5 0 -14 -8 -20 -10 -9 -15
-8 -19 3 -9 22 15 37 27 17z m301 -21 c-3 -5 -15 -10 -25 -10 -10 0 -22 5 -25
10 -4 6 7 10 25 10 18 0 29 -4 25 -10z m1900 0 c-3 -5 -12 -7 -20 -3 -21 7
-19 13 6 13 11 0 18 -4 14 -10z m-2967 -12 c18 -18 15 -28 -8 -28 -13 0 -20 7
-20 20 0 23 10 26 28 8z m907 2 c-3 -5 -10 -10 -16 -10 -5 0 -9 5 -9 10 0 6 7
10 16 10 8 0 12 -4 9 -10z m-4250 -19 c3 -5 1 -13 -5 -16 -15 -9 -43 3 -35 15
8 13 32 13 40 1z m1715 -6 c0 -8 -9 -15 -20 -15 -11 0 -20 7 -20 15 0 8 9 15
20 15 11 0 20 -7 20 -15z m2265 5 c-3 -5 -15 -10 -25 -10 -10 0 -22 5 -25 10
-4 6 7 10 25 10 18 0 29 -4 25 -10z m-310 -20 c-3 -5 -13 -10 -21 -10 -8 0
-14 5 -14 10 0 6 9 10 21 10 11 0 17 -4 14 -10z m135 6 c0 -3 -4 -8 -10 -11
-5 -3 -10 -1 -10 4 0 6 5 11 10 11 6 0 10 -2 10 -4z m1795 -6 c11 -17 -5 -32
-21 -19 -7 6 -11 15 -8 20 7 12 21 11 29 -1z m-2045 -10 c0 -5 -17 -9 -37 -9
-38 1 -38 1 -8 9 43 11 45 11 45 0z m-1010 -14 c0 -16 -18 -31 -27 -22 -8 8 5
36 17 36 5 0 10 -6 10 -14z m842 -8 c-7 -7 -12 -8 -12 -2 0 14 12 26 19 19 2
-3 -1 -11 -7 -17z m-2514 -5 c2 -8 -6 -13 -22 -13 -17 0 -26 5 -26 16 0 19 41
16 48 -3z m2362 7 c0 -5 -9 -10 -20 -10 -11 0 -20 5 -20 10 0 6 9 10 20 10 11
0 20 -4 20 -10z m-277 -21 c-13 -13 -55 -15 -60 -2 -2 7 8 13 24 15 33 4 48
-1 36 -13z m147 11 c0 -5 -13 -10 -29 -10 -17 0 -33 5 -36 10 -4 6 8 10 29 10
20 0 36 -4 36 -10z m3202 -2 c-9 -9 -15 -9 -24 0 -9 9 -7 12 12 12 19 0 21 -3
12 -12z m-1427 -9 c4 -6 5 -12 4 -14 -7 -7 -59 8 -59 16 0 13 47 11 55 -2z
m-2072 -14 c-4 -15 -66 -12 -71 3 -3 10 6 13 34 10 22 -2 38 -7 37 -13z m542
-6 c-8 -12 -45 -12 -45 0 0 10 30 20 43 14 4 -3 5 -9 2 -14z m-1629 -10 c3 -6
-3 -20 -14 -32 -19 -19 -22 -19 -28 -4 -13 35 23 66 42 36z m759 1 c-3 -5 -15
-10 -26 -10 -11 0 -17 5 -14 10 3 6 15 10 26 10 11 0 17 -4 14 -10z m170 0
c-3 -5 -17 -10 -31 -10 -13 0 -24 5 -24 10 0 6 14 10 31 10 17 0 28 -4 24 -10z
m-2655 -20 c0 -11 -6 -20 -14 -20 -18 0 -29 16 -21 30 11 18 35 11 35 -10z
m2358 8 c-5 -15 -68 -24 -68 -10 0 15 13 22 43 22 18 0 27 -4 25 -12z m3245
-3 c7 -16 -8 -29 -23 -20 -15 9 -12 35 4 35 8 0 16 -7 19 -15z m-3398 -10 c0
-5 -15 -11 -32 -13 -25 -3 -33 1 -33 13 0 12 8 16 33 13 17 -2 32 -7 32 -13z
m-150 -14 c-14 -12 -75 -22 -75 -12 0 15 14 21 49 21 20 0 31 -4 26 -9z m495
-6 c10 -12 9 -16 -5 -21 -19 -8 -40 9 -31 25 10 15 21 14 36 -4z m-660 -4 c0
-10 -24 -21 -46 -21 -8 0 -14 7 -14 15 0 10 10 15 30 15 17 0 30 -4 30 -9z
m4430 -1 c0 -5 -7 -10 -15 -10 -8 0 -15 5 -15 10 0 6 7 10 15 10 8 0 15 -4 15
-10z m-5448 -32 c-11 -11 -32 -3 -32 12 0 12 34 18 39 7 2 -5 -1 -13 -7 -19z
m708 22 c18 -11 13 -16 -27 -23 -35 -7 -55 9 -32 24 18 11 40 11 59 -1z m3308
-8 c4 -14 -34 -16 -42 -3 -6 10 13 21 28 17 6 -1 12 -8 14 -14z m-3170 -4 c0
-7 2 -22 4 -33 2 -14 -3 -20 -17 -20 -26 0 -32 35 -9 52 22 16 20 16 22 1z
m-288 -7 c0 -12 -56 -25 -70 -16 -6 3 -8 11 -5 16 8 12 75 12 75 0z m1920 -6
c7 -9 10 -18 7 -21 -10 -11 -37 5 -37 21 0 19 14 19 30 0z m-2262 -1 c12 -4
22 -13 22 -21 0 -22 -64 -13 -68 10 -4 18 8 21 46 11z m182 -9 c0 -10 -11 -15
-35 -15 -24 0 -35 5 -35 15 0 10 11 15 35 15 24 0 35 -5 35 -15z m-1260 -13
c0 -5 -9 -17 -19 -26 -21 -19 -35 -8 -25 18 6 16 44 23 44 8z m934 -1 c7 -10
-52 -26 -61 -17 -3 3 5 10 18 15 31 13 37 13 43 2z m4666 -1 c0 -5 -9 -10 -21
-10 -11 0 -17 5 -14 10 3 6 13 10 21 10 8 0 14 -4 14 -10z m-5171 -21 c41 -14
40 -29 -3 -29 -36 0 -52 12 -41 30 8 12 5 12 44 -1z m189 -1 c-3 -8 -21 -13
-43 -13 -22 0 -40 5 -42 13 -3 8 9 12 42 12 33 0 45 -4 43 -12z m146 -2 c-12
-8 -31 -12 -42 -9 -37 9 -24 23 20 23 40 0 41 -1 22 -14z m1786 -11 c0 -9 -9
-15 -25 -15 -24 0 -32 10 -18 23 12 13 43 7 43 -8z m-2261 -4 c12 -8 10 -12
-11 -22 -15 -6 -35 -8 -45 -5 -17 7 -17 8 1 22 23 16 35 17 55 5z m581 -17 c0
-16 -26 -19 -35 -4 -3 6 -4 14 0 20 8 13 35 1 35 -16z m5440 22 c0 -11 -19
-15 -25 -6 -3 5 1 10 9 10 9 0 16 -2 16 -4z m-6180 -15 c0 -16 -29 -33 -51
-29 -36 5 -34 26 3 31 18 2 36 5 41 5 4 1 7 -2 7 -7z m-225 -11 c3 -5 -1 -10
-10 -10 -9 0 -13 5 -10 10 3 6 8 10 10 10 2 0 7 -4 10 -10z m4975 0 c0 -5 -9
-10 -20 -10 -11 0 -20 5 -20 10 0 6 9 10 20 10 11 0 20 -4 20 -10z m-4905 -20
c4 -6 -7 -10 -27 -10 -25 0 -29 3 -18 10 19 13 37 13 45 0z m3385 0 c0 -5 -11
-10 -24 -10 -14 0 -28 5 -31 10 -4 6 7 10 24 10 17 0 31 -4 31 -10z m-1640
-19 c0 -3 -4 -12 -8 -18 -6 -10 -12 -10 -28 2 -16 12 -17 16 -5 24 14 9 41 4
41 -8z m3888 7 c-6 -18 -28 -21 -28 -4 0 9 7 16 16 16 9 0 14 -5 12 -12z
m1219 -14 c-3 -3 -12 -4 -19 -1 -8 3 -5 6 6 6 11 1 17 -2 13 -5z m-117 -14 c0
-5 -7 -10 -15 -10 -8 0 -15 5 -15 10 0 6 7 10 15 10 8 0 15 -4 15 -10z m-6710
-10 c0 -5 -4 -10 -10 -10 -5 0 -10 5 -10 10 0 6 5 10 10 10 6 0 10 -4 10 -10z
m6316 -19 c-10 -16 -36 -13 -36 3 0 17 21 27 34 16 4 -5 5 -13 2 -19z m269 19
c3 -5 -1 -10 -9 -10 -9 0 -16 5 -16 10 0 6 4 10 9 10 6 0 13 -4 16 -10z
m-4035 -16 c0 -10 -7 -14 -22 -12 -32 5 -35 28 -4 28 17 0 26 -5 26 -16z
m2328 -7 c2 -10 -3 -17 -12 -17 -18 0 -29 16 -21 31 9 14 29 6 33 -14z m1568
1 c-22 -12 -57 -1 -37 11 7 5 22 6 33 3 18 -4 19 -6 4 -14z m-5568 -5 c2 -9
-7 -13 -27 -13 -30 0 -39 9 -24 24 11 10 46 3 51 -11z m4718 -18 c-4 -12 3
-15 35 -15 27 0 38 -4 33 -11 -6 -10 -79 -7 -90 4 -7 7 7 37 18 37 6 0 8 -7 4
-15z m594 5 c0 -5 -9 -10 -20 -10 -11 0 -20 5 -20 10 0 6 9 10 20 10 11 0 20
-4 20 -10z m-2837 -15 c-4 -15 -36 -12 -41 3 -3 9 3 13 19 10 13 -1 23 -7 22
-13z m2715 4 c-2 -6 -7 -10 -11 -10 -4 1 -16 1 -28 1 -11 0 -17 5 -14 10 8 14
58 13 53 -1z m-4350 -16 c-2 -10 -10 -18 -18 -18 -8 0 -16 8 -18 18 -2 12 3
17 18 17 15 0 20 -5 18 -17z m4212 7 c8 -5 12 -11 10 -14 -8 -7 -60 6 -60 15
0 12 31 11 50 -1z m-135 -10 c-3 -5 -15 -10 -26 -10 -11 0 -17 5 -14 10 3 6
15 10 26 10 11 0 17 -4 14 -10z m-5795 -9 c0 -5 3 -17 6 -26 6 -16 4 -16 -27
1 -31 15 -32 18 -14 25 28 11 35 11 35 0z m4120 -11 c0 -5 -2 -10 -4 -10 -3 0
-8 5 -11 10 -3 6 -1 10 4 10 6 0 11 -4 11 -10z m1390 -4 c0 -8 -4 -17 -9 -21
-12 -7 -24 12 -16 25 9 15 25 12 25 -4z m-2955 -6 c8 -13 -20 -24 -41 -16 -20
8 -9 26 16 26 10 0 22 -5 25 -10z m2831 -1 c7 -12 -15 -31 -28 -23 -4 3 -8 12
-8 20 0 17 26 19 36 3z m-506 -24 c0 -8 -4 -15 -10 -15 -5 0 -10 7 -10 15 0 8
5 15 10 15 6 0 10 -7 10 -15z m380 5 c0 -5 -11 -10 -25 -10 -14 0 -25 5 -25
10 0 6 11 10 25 10 14 0 25 -4 25 -10z m-4380 -15 c0 -16 -17 -19 -44 -9 -22
9 -10 24 20 24 15 0 24 -6 24 -15z m2480 -10 c0 -16 -27 -28 -36 -14 -7 12 15
41 27 33 5 -3 9 -11 9 -19z m1748 13 c-3 -7 -11 -13 -18 -13 -7 0 -15 6 -17
13 -3 7 4 12 17 12 13 0 20 -5 18 -12z m507 -9 c10 -15 -1 -23 -20 -15 -9 3
-13 10 -10 16 8 13 22 13 30 -1z m-785 -7 c0 -13 -12 -22 -22 -16 -10 6 -1 24
13 24 5 0 9 -4 9 -8z m155 -2 c-3 -5 -13 -10 -21 -10 -8 0 -12 5 -9 10 3 6 13
10 21 10 8 0 12 -4 9 -10z m-3265 -20 c0 -5 -9 -10 -20 -10 -11 0 -20 5 -20
10 0 6 9 10 20 10 11 0 20 -4 20 -10z m2990 0 c0 -5 -11 -10 -25 -10 -14 0
-25 5 -25 10 0 6 11 10 25 10 14 0 25 -4 25 -10z m-140 -10 c0 -5 -11 -10 -24
-10 -14 0 -28 5 -31 10 -4 6 7 10 24 10 17 0 31 -4 31 -10z m-4554 -11 c12
-21 -12 -30 -40 -15 -18 9 -23 16 -14 19 23 9 47 7 54 -4z m4404 -5 c0 -2 -9
-4 -21 -4 -11 0 -18 4 -14 10 5 8 35 3 35 -6z m-1862 -11 c5 -17 -26 -29 -40
-15 -6 6 -7 15 -3 22 9 14 37 9 43 -7z m1573 2 c-1 -15 -24 -12 -29 3 -3 9 2
13 12 10 10 -1 17 -7 17 -13z m134 4 c-7 -11 -35 -12 -35 -1 0 4 9 8 20 9 11
1 18 -2 15 -8z m615 -14 c0 -14 -4 -25 -10 -25 -5 0 -10 11 -10 25 0 14 5 25
10 25 6 0 10 -11 10 -25z m-4000 -9 c0 -18 -27 -29 -36 -14 -4 5 0 14 7 19 20
13 29 11 29 -5z"/>
</g>
</svg>
